{
  "accessors": [
    {
      "bufferView": 2,
      "componentType": 5126,
      "count": 1087,
      "max": [
        24.9145565032959,
        0.2942357361316681,
        22.645822525024414
      ],
      "min": [
        -24.912654876708984,
        -24.544137954711914,
        -22.58512306213379
      ],
      "type": "VEC3"
    },
    {
      "bufferView": 2,
      "byteOffset": 13044,
      "componentType": 5126,
      "count": 1087,
      "max": [
        0.9984942674636841,
        0.9997188448905945,
        0.993236243724823
      ],
      "min": [
        -0.9985138177871704,
        -0.9999309182167053,
        -0.9937732219696045
      ],
      "type": "VEC3"
    },
    {
      "bufferView": 1,
      "componentType": 5126,
      "count": 1087,
      "max": [
        0.9436299800872803,
        0.9980400204658508
      ],
      "min": [
        0.0019499999471008778,
        0.0019499999471008778
      ],
      "type": "VEC2"
    },
    {
      "bufferView": 0,
      "componentType": 5125,
      "count": 5874,
      "type": "SCALAR"
    }
  ],
  "asset": {
    "extras": {
      "author": "Bogdan_Lapitsky (https://sketchfab.com/Bogdan_Lapitsky)",
      "license": "CC-BY-4.0 (http://creativecommons.org/licenses/by/4.0/)",
      "source": "https://sketchfab.com/3d-models/frog-eb219212147f4d84b88f8e103af8ea10",
      "title": "Frog"
    },
    "generator": "Sketchfab-12.65.0",
    "version": "2.0"
  },
  "bufferViews": [
    {
      "buffer": 0,
      "byteLength": 23496,
      "name": "floatBufferViews",
      "target": 34963
    },
    {
      "buffer": 0,
      "byteLength": 8696,
      "byteOffset": 23496,
      "byteStride": 8,
      "name": "floatBufferViews",
      "target": 34962
    },
    {
      "buffer": 0,
      "byteLength": 26088,
      "byteOffset": 32192,
      "byteStride": 12,
      "name": "floatBufferViews",
      "target": 34962
    }
  ],
  "buffers": [
    {
      "byteLength": 58280,
      "uri": "scene.bin"
    }
  ],
  "images": [
    {
      "uri": "textures/Material_25_baseColor.jpeg"
    }
  ],
  "materials": [
    {
      "doubleSided": true,
      "name": "Material_25",
      "pbrMetallicRoughness": {
        "baseColorTexture": {
          "index": 0
        },
        "metallicFactor": 0.0,
        "roughnessFactor": 0.1507240853658537
      }
    }
  ],
  "meshes": [
    {
      "name": "Group50449_Material #25_0",
      "primitives": [
        {
          "attributes": {
            "NORMAL": 1,
            "POSITION": 0,
            "TEXCOORD_0": 2
          },
          "indices": 3,
          "material": 0,
          "mode": 4
        }
      ]
    }
  ],
  "nodes": [
    {
      "children": [
        1
      ],
      "matrix": [
        0.10286098718643188,
        0.0,
        0.0,
        0.0,
        0.0,
        2.2839727262009976e-17,
        -0.10286098718643188,
        0.0,
        0.0,
        0.10286098718643188,
        2.2839727262009976e-17,
        0.0,
        0.0,
        0.0,
        0.0,
        1.0
      ],
      "name": "Sketchfab_model"
    },
    {
      "children": [
        2
      ],
      "matrix": [
        1.0,
        0.0,
        0.0,
        0.0,
        0.0,
        0.0,
        1.0,
        0.0,
        0.0,
        -1.0,
        0.0,
        0.0,
        0.0,
        0.0,
        0.0,
        1.0
      ],
      "name": "33f5a8e99c724675814b8812fb887b1a.fbx"
    },
    {
      "children": [
        3
      ],
      "name": "RootNode"
    },
    {
      "children": [
        4
      ],
      "matrix": [
        1.0,
        0.0,
        0.0,
        0.0,
        0.0,
        -0.9999999999999991,
        4.3711387965113384e-08,
        0.0,
        0.0,
        -4.3711387965113384e-08,
        -0.9999999999999991,
        0.0,
        0.0,
        0.0,
        0.0,
        1.0
      ],
      "name": "Group50449"
    },
    {
      "mesh": 0,
      "name": "Group50449_Material #25_0"
    }
  ],
  "samplers": [
    {
      "magFilter": 9729,
      "minFilter": 9987,
      "wrapS": 10497,
      "wrapT": 10497
    }
  ],
  "scene": 0,
  "scenes": [
    {
      "name": "Sketchfab_Scene",
      "nodes": [
        0
      ]
    }
  ],
  "textures": [
    {
      "sampler": 0,
      "source": 0
    }
  ]
}
