{
  "accessors": [
    {
      "bufferView": 2,
      "componentType": 5126,
      "count": 29581,
      "max": [
        2.817415237426758,
        2.519955635070801,
        2.443042516708374
      ],
      "min": [
        -3.333547592163086,
        -2.363621234893799,
        -3.018655776977539
      ],
      "type": "VEC3"
    },
    {
      "bufferView": 2,
      "byteOffset": 354972,
      "componentType": 5126,
      "count": 29581,
      "max": [
        0.9999982118606567,
        0.9996541142463684,
        0.9999754428863525
      ],
      "min": [
        -0.9944676160812378,
        -0.9999992847442627,
        -0.9999954104423523
      ],
      "type": "VEC3"
    },
    {
      "bufferView": 1,
      "componentType": 5126,
      "count": 29581,
      "max": [
        0.9999685287475586,
        0.9481786489486694
      ],
      "min": [
        3.123283386230469e-05,
        1.2680888175964355e-05
      ],
      "type": "VEC2"
    },
    {
      "bufferView": 1,
      "byteOffset": 236648,
      "componentType": 5126,
      "count": 29581,
      "max": [
        0.9999685287475586,
        0.9481786489486694
      ],
      "min": [
        3.123283386230469e-05,
        1.2680888175964355e-05
      ],
      "type": "VEC2"
    },
    {
      "bufferView": 0,
      "componentType": 5125,
      "count": 173142,
      "type": "SCALAR"
    },
    {
      "bufferView": 2,
      "byteOffset": 709944,
      "componentType": 5126,
      "count": 29229,
      "max": [
        2.845205545425415,
        2.5435101985931396,
        2.1483404636383057
      ],
      "min": [
        -3.5135366916656494,
        -2.2399282455444336,
        -2.5066182613372803
      ],
      "type": "VEC3"
    },
    {
      "bufferView": 2,
      "byteOffset": 1060692,
      "componentType": 5126,
      "count": 29229,
      "max": [
        0.9999687671661377,
        0.999989926815033,
        0.9978208541870117
      ],
      "min": [
        -0.99784916639328,
        -0.9999852180480957,
        -0.999992847442627
      ],
      "type": "VEC3"
    },
    {
      "bufferView": 1,
      "byteOffset": 473296,
      "componentType": 5126,
      "count": 29229,
      "max": [
        0.9999886751174927,
        0.8061241507530212
      ],
      "min": [
        2.1162984467082424e-06,
        1.2695092664216645e-05
      ],
      "type": "VEC2"
    },
    {
      "bufferView": 1,
      "byteOffset": 707128,
      "componentType": 5126,
      "count": 29229,
      "max": [
        0.9999886751174927,
        0.8061241507530212
      ],
      "min": [
        2.1162984467082424e-06,
        1.2695092664216645e-05
      ],
      "type": "VEC2"
    },
    {
      "bufferView": 0,
      "byteOffset": 692568,
      "componentType": 5125,
      "count": 171432,
      "type": "SCALAR"
    },
    {
      "bufferView": 2,
      "byteOffset": 1411440,
      "componentType": 5126,
      "count": 38548,
      "max": [
        2.7924885749816895,
        2.772496223449707,
        2.39966082572937
      ],
      "min": [
        -3.572471857070923,
        -2.4812660217285156,
        -1.2955851554870605
      ],
      "type": "VEC3"
    },
    {
      "bufferView": 2,
      "byteOffset": 1874016,
      "componentType": 5126,
      "count": 38548,
      "max": [
        0.9992543458938599,
        0.9999967217445374,
        0.9999942183494568
      ],
      "min": [
        -0.9989084601402283,
        -0.9999961853027344,
        -0.9996626973152161
      ],
      "type": "VEC3"
    },
    {
      "bufferView": 1,
      "byteOffset": 940960,
      "componentType": 5126,
      "count": 38548,
      "max": [
        0.999977707862854,
        0.7914096713066101
      ],
      "min": [
        2.5570432626409456e-05,
        4.902482032775879e-06
      ],
      "type": "VEC2"
    },
    {
      "bufferView": 1,
      "byteOffset": 1249344,
      "componentType": 5126,
      "count": 38548,
      "max": [
        0.999977707862854,
        0.7914096713066101
      ],
      "min": [
        2.5570432626409456e-05,
        4.902482032775879e-06
      ],
      "type": "VEC2"
    },
    {
      "bufferView": 0,
      "byteOffset": 1378296,
      "componentType": 5125,
      "count": 225420,
      "type": "SCALAR"
    }
  ],
  "asset": {
    "extras": {
      "author": "matousekfoto (https://sketchfab.com/matousekfoto)",
      "license": "CC-BY-4.0 (http://creativecommons.org/licenses/by/4.0/)",
      "source": "https://sketchfab.com/3d-models/wood-chopping-trunk-base-log-ba19a59fdd7f4f01ac5e3f8700b90775",
      "title": "Wood chopping trunk base log"
    },
    "generator": "Sketchfab-12.67.0",
    "version": "2.0"
  },
  "bufferViews": [
    {
      "buffer": 0,
      "byteLength": 2279976,
      "name": "floatBufferViews",
      "target": 34963
    },
    {
      "buffer": 0,
      "byteLength": 1557728,
      "byteOffset": 2279976,
      "byteStride": 8,
      "name": "floatBufferViews",
      "target": 34962
    },
    {
      "buffer": 0,
      "byteLength": 2336592,
      "byteOffset": 3837704,
      "byteStride": 12,
      "name": "floatBufferViews",
      "target": 34962
    }
  ],
  "buffers": [
    {
      "byteLength": 6174296,
      "uri": "scene.bin"
    }
  ],
  "extensionsUsed": [
    "KHR_materials_unlit"
  ],
  "images": [
    {
      "uri": "textures/material0_baseColor.jpeg"
    },
    {
      "uri": "textures/material2_baseColor.jpeg"
    },
    {
      "uri": "textures/material1_baseColor.jpeg"
    }
  ],
  "materials": [
    {
      "doubleSided": true,
      "extensions": {
        "KHR_materials_unlit": {}
      },
      "name": "material0",
      "pbrMetallicRoughness": {
        "baseColorTexture": {
          "index": 0
        },
        "metallicFactor": 0.0
      }
    },
    {
      "doubleSided": true,
      "extensions": {
        "KHR_materials_unlit": {}
      },
      "name": "material2",
      "pbrMetallicRoughness": {
        "baseColorTexture": {
          "index": 1
        },
        "metallicFactor": 0.0
      }
    },
    {
      "doubleSided": true,
      "extensions": {
        "KHR_materials_unlit": {}
      },
      "name": "material1",
      "pbrMetallicRoughness": {
        "baseColorTexture": {
          "index": 2
        },
        "metallicFactor": 0.0
      }
    }
  ],
  "meshes": [
    {
      "name": "Model_material0_0",
      "primitives": [
        {
          "attributes": {
            "NORMAL": 1,
            "POSITION": 0,
            "TEXCOORD_0": 2,
            "TEXCOORD_1": 3
          },
          "indices": 4,
          "material": 0,
          "mode": 4
        }
      ]
    },
    {
      "name": "Model_material2_0",
      "primitives": [
        {
          "attributes": {
            "NORMAL": 6,
            "POSITION": 5,
            "TEXCOORD_0": 7,
            "TEXCOORD_1": 8
          },
          "indices": 9,
          "material": 1,
          "mode": 4
        }
      ]
    },
    {
      "name": "Model_material1_0",
      "primitives": [
        {
          "attributes": {
            "NORMAL": 11,
            "POSITION": 10,
            "TEXCOORD_0": 12,
            "TEXCOORD_1": 13
          },
          "indices": 14,
          "material": 2,
          "mode": 4
        }
      ]
    }
  ],
  "nodes": [
    {
      "children": [
        1
      ],
      "matrix": [
        0.015290412120521069,
        0.12406128644943237,
        2.754713933615535e-17,
        0.0,
        0.0,
        2.7755575615628914e-17,
        -0.125,
        0.0,
        -0.12406128644943237,
        0.015290412120521069,
        3.395153518442011e-18,
        0.0,
        -0.6047860980033875,
        0.10829058289527893,
        6.984529934601426e-08,
        1.0
      ],
      "name": "Sketchfab_model"
    },
    {
      "children": [
        2
      ],
      "matrix": [
        0.009999999776482582,
        0.0,
        0.0,
        0.0,
        0.0,
        0.0,
        0.009999999776482582,
        0.0,
        0.0,
        -0.009999999776482582,
        0.0,
        0.0,
        0.0,
        0.0,
        0.0,
        1.0
      ],
      "name": "chop-trunk.fbx"
    },
    {
      "children": [
        3
      ],
      "name": "RootNode"
    },
    {
      "children": [
        4,
        5,
        6
      ],
      "matrix": [
        100.0,
        0.0,
        0.0,
        0.0,
        0.0,
        -1.629206793918314e-05,
        -99.99999999999868,
        0.0,
        0.0,
        99.99999999999868,
        -1.629206793918314e-05,
        0.0,
        0.0,
        0.0,
        0.0,
        1.0
      ],
      "name": "Model"
    },
    {
      "mesh": 0,
      "name": "Model_material0_0"
    },
    {
      "mesh": 1,
      "name": "Model_material2_0"
    },
    {
      "mesh": 2,
      "name": "Model_material1_0"
    }
  ],
  "samplers": [
    {
      "magFilter": 9729,
      "minFilter": 9987,
      "wrapS": 10497,
      "wrapT": 10497
    }
  ],
  "scene": 0,
  "scenes": [
    {
      "name": "Sketchfab_Scene",
      "nodes": [
        0
      ]
    }
  ],
  "textures": [
    {
      "sampler": 0,
      "source": 0
    },
    {
      "sampler": 0,
      "source": 1
    },
    {
      "sampler": 0,
      "source": 2
    }
  ]
}
