{
  "accessors": [
    {
      "bufferView": 2,
      "componentType": 5126,
      "count": 951,
      "max": [
        67.33855438232422,
        70.86660766601563,
        219.0701904296875
      ],
      "min": [
        -67.33855438232422,
        -11.077163696289063,
        -210.8313751220703
      ],
      "type": "VEC3"
    },
    {
      "bufferView": 2,
      "byteOffset": 11412,
      "componentType": 5126,
      "count": 951,
      "max": [
        1.0,
        1.0,
        1.0
      ],
      "min": [
        -1.0,
        -1.0,
        -1.0
      ],
      "type": "VEC3"
    },
    {
      "bufferView": 3,
      "componentType": 5126,
      "count": 951,
      "max": [
        1.0,
        1.0,
        1.0,
        1.0
      ],
      "min": [
        -1.0,
        -1.0,
        -1.0,
        -1.0
      ],
      "type": "VEC4"
    },
    {
      "bufferView": 1,
      "componentType": 5126,
      "count": 951,
      "max": [
        0.9853394031524658,
        0.996981143951416
      ],
      "min": [
        0.002977272728458047,
        0.0029829740524291992
      ],
      "type": "VEC2"
    },
    {
      "bufferView": 1,
      "byteOffset": 7608,
      "componentType": 5126,
      "count": 951,
      "max": [
        0.9853394031524658,
        0.996981143951416
      ],
      "min": [
        0.002977272728458047,
        0.0029829740524291992
      ],
      "type": "VEC2"
    },
    {
      "bufferView": 0,
      "componentType": 5125,
      "count": 2442,
      "type": "SCALAR"
    },
    {
      "bufferView": 2,
      "byteOffset": 22824,
      "componentType": 5126,
      "count": 134,
      "max": [
        102.95882415771484,
        2.1849136352539063,
        10.934063911437988
      ],
      "min": [
        -59.38277053833008,
        -2.184906005859375,
        -10.934063911437988
      ],
      "type": "VEC3"
    },
    {
      "bufferView": 2,
      "byteOffset": 24432,
      "componentType": 5126,
      "count": 134,
      "max": [
        0.9918513298034668,
        1.0,
        1.0
      ],
      "min": [
        -1.0,
        -1.0,
        -1.0
      ],
      "type": "VEC3"
    },
    {
      "bufferView": 3,
      "byteOffset": 15216,
      "componentType": 5126,
      "count": 134,
      "max": [
        1.0,
        1.0,
        1.0,
        1.0
      ],
      "min": [
        -0.6942534446716309,
        -0.3595840334892273,
        -1.0,
        -1.0
      ],
      "type": "VEC4"
    },
    {
      "bufferView": 1,
      "byteOffset": 15216,
      "componentType": 5126,
      "count": 134,
      "max": [
        0.8941290974617004,
        0.5829995274543762
      ],
      "min": [
        0.21014592051506042,
        0.0029741525650024414
      ],
      "type": "VEC2"
    },
    {
      "bufferView": 1,
      "byteOffset": 16288,
      "componentType": 5126,
      "count": 134,
      "max": [
        0.8941290974617004,
        0.5829995274543762
      ],
      "min": [
        0.21014592051506042,
        0.0029741525650024414
      ],
      "type": "VEC2"
    },
    {
      "bufferView": 0,
      "byteOffset": 9768,
      "componentType": 5125,
      "count": 375,
      "type": "SCALAR"
    }
  ],
  "asset": {
    "extras": {
      "author": "DJMaesen (https://sketchfab.com/bumstrum)",
      "license": "CC-BY-4.0 (http://creativecommons.org/licenses/by/4.0/)",
      "source": "https://sketchfab.com/3d-models/boat-5cdc4fc134e84a8d97fb2d3ffaf5c5fb",
      "title": "Boat"
    },
    "generator": "Sketchfab-12.66.0",
    "version": "2.0"
  },
  "bufferViews": [
    {
      "buffer": 0,
      "byteLength": 11268,
      "name": "floatBufferViews",
      "target": 34963
    },
    {
      "buffer": 0,
      "byteLength": 17360,
      "byteOffset": 11268,
      "byteStride": 8,
      "name": "floatBufferViews",
      "target": 34962
    },
    {
      "buffer": 0,
      "byteLength": 26040,
      "byteOffset": 28628,
      "byteStride": 12,
      "name": "floatBufferViews",
      "target": 34962
    },
    {
      "buffer": 0,
      "byteLength": 17360,
      "byteOffset": 54668,
      "byteStride": 16,
      "name": "floatBufferViews",
      "target": 34962
    }
  ],
  "buffers": [
    {
      "byteLength": 72028,
      "uri": "scene.bin"
    }
  ],
  "images": [
    {
      "uri": "textures/boat_baseColor.png"
    },
    {
      "uri": "textures/boat_metallicRoughness.png"
    },
    {
      "uri": "textures/boat_normal.png"
    }
  ],
  "materials": [
    {
      "name": "boat",
      "normalTexture": {
        "index": 2
      },
      "occlusionTexture": {
        "index": 1
      },
      "pbrMetallicRoughness": {
        "baseColorTexture": {
          "index": 0
        },
        "metallicRoughnessTexture": {
          "index": 1
        }
      }
    }
  ],
  "meshes": [
    {
      "name": "boat_boat_0",
      "primitives": [
        {
          "attributes": {
            "NORMAL": 1,
            "POSITION": 0,
            "TANGENT": 2,
            "TEXCOORD_0": 3,
            "TEXCOORD_1": 4
          },
          "indices": 5,
          "material": 0,
          "mode": 4
        }
      ]
    },
    {
      "name": "paddel_boat_0",
      "primitives": [
        {
          "attributes": {
            "NORMAL": 7,
            "POSITION": 6,
            "TANGENT": 8,
            "TEXCOORD_0": 9,
            "TEXCOORD_1": 10
          },
          "indices": 11,
          "material": 0,
          "mode": 4
        }
      ]
    }
  ],
  "nodes": [
    {
      "children": [
        1
      ],
      "matrix": [
        1.0,
        0.0,
        0.0,
        0.0,
        0.0,
        2.220446049250313e-16,
        -1.0,
        0.0,
        0.0,
        1.0,
        2.220446049250313e-16,
        0.0,
        0.0,
        0.0,
        0.0,
        1.0
      ],
      "name": "Sketchfab_model"
    },
    {
      "children": [
        2
      ],
      "matrix": [
        1.0,
        0.0,
        0.0,
        0.0,
        0.0,
        0.0,
        1.0,
        0.0,
        0.0,
        -1.0,
        0.0,
        0.0,
        0.0,
        0.0,
        0.0,
        1.0
      ],
      "name": "01e6de31d9c04abfb80dd3ceb239b9e0.fbx"
    },
    {
      "children": [
        3
      ],
      "name": "RootNode"
    },
    {
      "children": [
        4,
        5
      ],
      "matrix": [
        1.0,
        0.0,
        0.0,
        0.0,
        0.0,
        0.9999999999999867,
        1.6292067073209127e-07,
        0.0,
        0.0,
        -1.6292067073209127e-07,
        0.9999999999999867,
        0.0,
        0.0,
        -8.36166000366211,
        -1.3622872074847692e-06,
        1.0
      ],
      "name": "boat"
    },
    {
      "mesh": 0,
      "name": "boat_boat_0"
    },
    {
      "children": [
        6
      ],
      "matrix": [
        0.9564851052234085,
        0.26762529461782997,
        -0.11624519416511324,
        0.0,
        -0.26945203202497187,
        0.9630138121738512,
        6.938893903907228e-18,
        0.0,
        0.11194572757983522,
        0.03132250378092716,
        0.9932205469247578,
        0.0,
        9.872652053833008,
        38.63835144042969,
        9.994523048400879,
        1.0
      ],
      "name": "paddel"
    },
    {
      "mesh": 1,
      "name": "paddel_boat_0"
    }
  ],
  "samplers": [
    {
      "magFilter": 9729,
      "minFilter": 9987,
      "wrapS": 10497,
      "wrapT": 10497
    }
  ],
  "scene": 0,
  "scenes": [
    {
      "name": "Sketchfab_Scene",
      "nodes": [
        0
      ]
    }
  ],
  "textures": [
    {
      "sampler": 0,
      "source": 0
    },
    {
      "sampler": 0,
      "source": 1
    },
    {
      "sampler": 0,
      "source": 2
    }
  ]
}
