{
  "accessors": [
    {
      "bufferView": 2,
      "componentType": 5126,
      "count": 88,
      "max": [
        144.13650512695313,
        123.57730102539063,
        478.12469482421875
      ],
      "min": [
        -159.2104949951172,
        -186.80540466308594,
        250.91549682617188
      ],
      "type": "VEC3"
    },
    {
      "bufferView": 2,
      "byteOffset": 1056,
      "componentType": 5126,
      "count": 88,
      "max": [
        0.973503589630127,
        0.9673974514007568,
        0.43322309851646423
      ],
      "min": [
        -0.8917748928070068,
        -0.9923534989356995,
        -0.13679195940494537
      ],
      "type": "VEC3"
    },
    {
      "bufferView": 1,
      "componentType": 5126,
      "count": 88,
      "max": [
        1.0,
        1.0
      ],
      "min": [
        0.0,
        0.0
      ],
      "type": "VEC2"
    },
    {
      "bufferView": 0,
      "componentType": 5125,
      "count": 132,
      "type": "SCALAR"
    },
    {
      "bufferView": 2,
      "byteOffset": 2112,
      "componentType": 5126,
      "count": 336,
      "max": [
        183.906005859375,
        196.27029418945313,
        495.45721435546875
      ],
      "min": [
        -207.99240112304688,
        -179.0220947265625,
        68.52459716796875
      ],
      "type": "VEC3"
    },
    {
      "bufferView": 2,
      "byteOffset": 6144,
      "componentType": 5126,
      "count": 336,
      "max": [
        0.7096802592277527,
        0.6587597727775574,
        0.9943246841430664
      ],
      "min": [
        -0.6961283683776855,
        -0.7233679890632629,
        0.536274790763855
      ],
      "type": "VEC3"
    },
    {
      "bufferView": 1,
      "byteOffset": 704,
      "componentType": 5126,
      "count": 336,
      "max": [
        1.0,
        1.0
      ],
      "min": [
        0.0,
        0.0
      ],
      "type": "VEC2"
    },
    {
      "bufferView": 0,
      "byteOffset": 528,
      "componentType": 5125,
      "count": 504,
      "type": "SCALAR"
    },
    {
      "bufferView": 2,
      "byteOffset": 10176,
      "componentType": 5126,
      "count": 112,
      "max": [
        201.3925018310547,
        246.1875,
        424.793701171875
      ],
      "min": [
        -138.37950134277344,
        -135.25059509277344,
        138.80189514160156
      ],
      "type": "VEC3"
    },
    {
      "bufferView": 2,
      "byteOffset": 11520,
      "componentType": 5126,
      "count": 112,
      "max": [
        0.9674233198165894,
        0.5159052610397339,
        0.8912415504455566
      ],
      "min": [
        -0.8291224241256714,
        -0.9713017344474792,
        0.11700236797332764
      ],
      "type": "VEC3"
    },
    {
      "bufferView": 1,
      "byteOffset": 3392,
      "componentType": 5126,
      "count": 112,
      "max": [
        1.0,
        1.0
      ],
      "min": [
        0.0,
        0.0
      ],
      "type": "VEC2"
    },
    {
      "bufferView": 0,
      "byteOffset": 2544,
      "componentType": 5125,
      "count": 168,
      "type": "SCALAR"
    },
    {
      "bufferView": 2,
      "byteOffset": 12864,
      "componentType": 5126,
      "count": 3955,
      "max": [
        179.38040161132813,
        175.80140686035156,
        428.8929138183594
      ],
      "min": [
        -162.57749938964844,
        -151.2321014404297,
        -0.35179999470710754
      ],
      "type": "VEC3"
    },
    {
      "bufferView": 2,
      "byteOffset": 60324,
      "componentType": 5126,
      "count": 3955,
      "max": [
        0.9999985694885254,
        0.9991447925567627,
        0.9999591112136841
      ],
      "min": [
        -0.9998670816421509,
        -0.9994868636131287,
        -0.9999626874923706
      ],
      "type": "VEC3"
    },
    {
      "bufferView": 1,
      "byteOffset": 4288,
      "componentType": 5126,
      "count": 3955,
      "max": [
        0.9800000190734863,
        0.978600025177002
      ],
      "min": [
        0.019999999552965164,
        0.019999999552965164
      ],
      "type": "VEC2"
    },
    {
      "bufferView": 0,
      "byteOffset": 3216,
      "componentType": 5125,
      "count": 9798,
      "type": "SCALAR"
    },
    {
      "bufferView": 2,
      "byteOffset": 107784,
      "componentType": 5126,
      "count": 36,
      "max": [
        121.72869873046875,
        174.4073028564453,
        253.46539306640625
      ],
      "min": [
        -171.24850463867188,
        -120.80130004882813,
        80.5968017578125
      ],
      "type": "VEC3"
    },
    {
      "bufferView": 2,
      "byteOffset": 108216,
      "componentType": 5126,
      "count": 36,
      "max": [
        0.9848078489303589,
        0.1710013747215271,
        0.0900014340877533
      ],
      "min": [
        -0.7988126277923584,
        -0.9848158359527588,
        -0.0
      ],
      "type": "VEC3"
    },
    {
      "bufferView": 1,
      "byteOffset": 35928,
      "componentType": 5126,
      "count": 36,
      "max": [
        1.0,
        1.0
      ],
      "min": [
        0.0,
        0.0
      ],
      "type": "VEC2"
    },
    {
      "bufferView": 0,
      "byteOffset": 42408,
      "componentType": 5125,
      "count": 54,
      "type": "SCALAR"
    },
    {
      "bufferView": 2,
      "byteOffset": 108648,
      "componentType": 5126,
      "count": 28,
      "max": [
        108.52249908447266,
        200.32000732421875,
        320.99090576171875
      ],
      "min": [
        -227.55020141601563,
        -117.1312026977539,
        33.83110046386719
      ],
      "type": "VEC3"
    },
    {
      "bufferView": 2,
      "byteOffset": 108984,
      "componentType": 5126,
      "count": 28,
      "max": [
        0.8753933310508728,
        0.7616001963615417,
        0.2186955213546753
      ],
      "min": [
        -0.7660200595855713,
        -0.9532804489135742,
        -0.13990004360675812
      ],
      "type": "VEC3"
    },
    {
      "bufferView": 1,
      "byteOffset": 36216,
      "componentType": 5126,
      "count": 28,
      "max": [
        1.0,
        1.0
      ],
      "min": [
        0.0,
        0.0
      ],
      "type": "VEC2"
    },
    {
      "bufferView": 0,
      "byteOffset": 42624,
      "componentType": 5125,
      "count": 42,
      "type": "SCALAR"
    },
    {
      "bufferView": 2,
      "byteOffset": 109320,
      "componentType": 5126,
      "count": 72,
      "max": [
        118.83180236816406,
        154.72909545898438,
        304.6836853027344
      ],
      "min": [
        -179.97950744628906,
        -70.70110321044922,
        80.28359985351563
      ],
      "type": "VEC3"
    },
    {
      "bufferView": 2,
      "byteOffset": 110184,
      "componentType": 5126,
      "count": 72,
      "max": [
        0.7660001516342163,
        0.9997956156730652,
        0.34619495272636414
      ],
      "min": [
        -0.9283374547958374,
        -1.0,
        -0.44458889961242676
      ],
      "type": "VEC3"
    },
    {
      "bufferView": 1,
      "byteOffset": 36440,
      "componentType": 5126,
      "count": 72,
      "max": [
        1.0,
        1.0
      ],
      "min": [
        0.0,
        0.0
      ],
      "type": "VEC2"
    },
    {
      "bufferView": 0,
      "byteOffset": 42792,
      "componentType": 5125,
      "count": 108,
      "type": "SCALAR"
    },
    {
      "bufferView": 2,
      "byteOffset": 111048,
      "componentType": 5126,
      "count": 32,
      "max": [
        216.61680603027344,
        180.57659912109375,
        318.3013916015625
      ],
      "min": [
        -187.87120056152344,
        -106.51139831542969,
        19.261899948120117
      ],
      "type": "VEC3"
    },
    {
      "bufferView": 2,
      "byteOffset": 111432,
      "componentType": 5126,
      "count": 32,
      "max": [
        0.9978936910629272,
        0.4843828082084656,
        0.032399795949459076
      ],
      "min": [
        -0.9659289121627808,
        -1.0,
        -0.018099358305335045
      ],
      "type": "VEC3"
    },
    {
      "bufferView": 1,
      "byteOffset": 37016,
      "componentType": 5126,
      "count": 32,
      "max": [
        1.0,
        1.0
      ],
      "min": [
        0.0,
        0.0
      ],
      "type": "VEC2"
    },
    {
      "bufferView": 0,
      "byteOffset": 43224,
      "componentType": 5125,
      "count": 48,
      "type": "SCALAR"
    },
    {
      "bufferView": 2,
      "byteOffset": 111816,
      "componentType": 5126,
      "count": 24,
      "max": [
        163.78219604492188,
        185.75140380859375,
        214.80099487304688
      ],
      "min": [
        -213.72300720214844,
        -116.3478012084961,
        61.567298889160156
      ],
      "type": "VEC3"
    },
    {
      "bufferView": 2,
      "byteOffset": 112104,
      "componentType": 5126,
      "count": 24,
      "max": [
        0.004399987868964672,
        0.9867264628410339,
        0.26659926772117615
      ],
      "min": [
        -0.9961951375007629,
        -0.963797390460968,
        -0.05030134692788124
      ],
      "type": "VEC3"
    },
    {
      "bufferView": 1,
      "byteOffset": 37272,
      "componentType": 5126,
      "count": 24,
      "max": [
        1.0,
        1.0
      ],
      "min": [
        0.0,
        0.0
      ],
      "type": "VEC2"
    },
    {
      "bufferView": 0,
      "byteOffset": 43416,
      "componentType": 5125,
      "count": 36,
      "type": "SCALAR"
    },
    {
      "bufferView": 2,
      "byteOffset": 112392,
      "componentType": 5126,
      "count": 40,
      "max": [
        147.94619750976563,
        55.35749816894531,
        230.26519775390625
      ],
      "min": [
        -157.17799377441406,
        -92.45999908447266,
        93.35769653320313
      ],
      "type": "VEC3"
    },
    {
      "bufferView": 2,
      "byteOffset": 112872,
      "componentType": 5126,
      "count": 40,
      "max": [
        0.7795876860618591,
        0.8537552952766418,
        0.17359516024589539
      ],
      "min": [
        -0.9098058342933655,
        -0.9810726642608643,
        -0.3341825008392334
      ],
      "type": "VEC3"
    },
    {
      "bufferView": 1,
      "byteOffset": 37464,
      "componentType": 5126,
      "count": 40,
      "max": [
        1.0,
        1.0
      ],
      "min": [
        0.0,
        0.0
      ],
      "type": "VEC2"
    },
    {
      "bufferView": 0,
      "byteOffset": 43560,
      "componentType": 5125,
      "count": 60,
      "type": "SCALAR"
    },
    {
      "bufferView": 2,
      "byteOffset": 113352,
      "componentType": 5126,
      "count": 532,
      "max": [
        215.7263946533203,
        210.5124969482422,
        451.3568115234375
      ],
      "min": [
        -228.4470977783203,
        -205.91769409179688,
        9.140000343322754
      ],
      "type": "VEC3"
    },
    {
      "bufferView": 2,
      "byteOffset": 119736,
      "componentType": 5126,
      "count": 532,
      "max": [
        1.0,
        1.0,
        0.14050419628620148
      ],
      "min": [
        -0.9961909055709839,
        -1.0,
        -0.12900330126285553
      ],
      "type": "VEC3"
    },
    {
      "bufferView": 1,
      "byteOffset": 37784,
      "componentType": 5126,
      "count": 532,
      "max": [
        1.0,
        1.0
      ],
      "min": [
        0.0,
        0.0
      ],
      "type": "VEC2"
    },
    {
      "bufferView": 0,
      "byteOffset": 43800,
      "componentType": 5125,
      "count": 798,
      "type": "SCALAR"
    },
    {
      "bufferView": 2,
      "byteOffset": 126120,
      "componentType": 5126,
      "count": 676,
      "max": [
        226.43899536132813,
        230.99609375,
        475.0668029785156
      ],
      "min": [
        -221.19630432128906,
        -220.7050018310547,
        23.86009979248047
      ],
      "type": "VEC3"
    },
    {
      "bufferView": 2,
      "byteOffset": 134232,
      "componentType": 5126,
      "count": 676,
      "max": [
        1.0,
        0.999163031578064,
        0.22650526463985443
      ],
      "min": [
        -1.0,
        -1.0,
        -0.32299819588661194
      ],
      "type": "VEC3"
    },
    {
      "bufferView": 1,
      "byteOffset": 42040,
      "componentType": 5126,
      "count": 676,
      "max": [
        1.0,
        1.0
      ],
      "min": [
        0.0,
        0.0
      ],
      "type": "VEC2"
    },
    {
      "bufferView": 0,
      "byteOffset": 46992,
      "componentType": 5125,
      "count": 1014,
      "type": "SCALAR"
    }
  ],
  "asset": {
    "extras": {
      "author": "dgsamples (https://sketchfab.com/dgsamples)",
      "license": "CC-BY-4.0 (http://creativecommons.org/licenses/by/4.0/)",
      "source": "https://sketchfab.com/3d-models/lowpoly-willow-tree-b29e4afd59574ba8ba5293b38c95f8dd",
      "title": "Lowpoly - Willow tree"
    },
    "generator": "Sketchfab-12.68.0",
    "version": "2.0"
  },
  "bufferViews": [
    {
      "buffer": 0,
      "byteLength": 51048,
      "name": "floatBufferViews",
      "target": 34963
    },
    {
      "buffer": 0,
      "byteLength": 47448,
      "byteOffset": 51048,
      "byteStride": 8,
      "name": "floatBufferViews",
      "target": 34962
    },
    {
      "buffer": 0,
      "byteLength": 142344,
      "byteOffset": 98496,
      "byteStride": 12,
      "name": "floatBufferViews",
      "target": 34962
    }
  ],
  "buffers": [
    {
      "byteLength": 240840,
      "uri": "scene.bin"
    }
  ],
  "images": [
    {
      "uri": "textures/Material__10_baseColor.png"
    },
    {
      "uri": "textures/Material__10_emissive.jpeg"
    },
    {
      "uri": "textures/Material__12_baseColor.png"
    },
    {
      "uri": "textures/Material__12_emissive.jpeg"
    },
    {
      "uri": "textures/Material__13_baseColor.png"
    },
    {
      "uri": "textures/Material__13_emissive.jpeg"
    },
    {
      "uri": "textures/Material__14_baseColor.jpeg"
    },
    {
      "uri": "textures/Material__2_baseColor.png"
    },
    {
      "uri": "textures/Material__2_emissive.jpeg"
    },
    {
      "uri": "textures/Material__3_baseColor.png"
    },
    {
      "uri": "textures/Material__3_emissive.jpeg"
    },
    {
      "uri": "textures/Material__4_baseColor.png"
    },
    {
      "uri": "textures/Material__4_emissive.jpeg"
    },
    {
      "uri": "textures/Material__5_baseColor.png"
    },
    {
      "uri": "textures/Material__5_emissive.jpeg"
    },
    {
      "uri": "textures/Material__6_baseColor.png"
    },
    {
      "uri": "textures/Material__6_emissive.jpeg"
    },
    {
      "uri": "textures/Material__7_baseColor.png"
    },
    {
      "uri": "textures/Material__7_emissive.jpeg"
    },
    {
      "uri": "textures/Material__8_baseColor.png"
    },
    {
      "uri": "textures/Material__8_emissive.jpeg"
    },
    {
      "uri": "textures/Material__9_baseColor.png"
    },
    {
      "uri": "textures/Material__9_emissive.jpeg"
    }
  ],
  "materials": [
    {
      "alphaMode": "BLEND",
      "doubleSided": true,
      "emissiveTexture": {
        "index": 1
      },
      "name": "Material__10",
      "pbrMetallicRoughness": {
        "baseColorTexture": {
          "index": 0
        },
        "metallicFactor": 0.0
      }
    },
    {
      "alphaMode": "BLEND",
      "doubleSided": true,
      "emissiveTexture": {
        "index": 3
      },
      "name": "Material__12",
      "pbrMetallicRoughness": {
        "baseColorTexture": {
          "index": 2
        },
        "metallicFactor": 0.0
      }
    },
    {
      "alphaMode": "BLEND",
      "doubleSided": true,
      "emissiveTexture": {
        "index": 5
      },
      "name": "Material__13",
      "pbrMetallicRoughness": {
        "baseColorTexture": {
          "index": 4
        },
        "metallicFactor": 0.0
      }
    },
    {
      "doubleSided": true,
      "emissiveTexture": {
        "index": 6
      },
      "name": "Material__14",
      "pbrMetallicRoughness": {
        "baseColorTexture": {
          "index": 6
        },
        "metallicFactor": 0.0
      }
    },
    {
      "alphaMode": "BLEND",
      "doubleSided": true,
      "emissiveTexture": {
        "index": 8
      },
      "name": "Material__2",
      "pbrMetallicRoughness": {
        "baseColorTexture": {
          "index": 7
        },
        "metallicFactor": 0.0
      }
    },
    {
      "alphaMode": "BLEND",
      "doubleSided": true,
      "emissiveTexture": {
        "index": 10
      },
      "name": "Material__3",
      "pbrMetallicRoughness": {
        "baseColorTexture": {
          "index": 9
        },
        "metallicFactor": 0.0
      }
    },
    {
      "alphaMode": "BLEND",
      "doubleSided": true,
      "emissiveTexture": {
        "index": 12
      },
      "name": "Material__4",
      "pbrMetallicRoughness": {
        "baseColorTexture": {
          "index": 11
        },
        "metallicFactor": 0.0
      }
    },
    {
      "alphaMode": "BLEND",
      "doubleSided": true,
      "emissiveTexture": {
        "index": 14
      },
      "name": "Material__5",
      "pbrMetallicRoughness": {
        "baseColorTexture": {
          "index": 13
        },
        "metallicFactor": 0.0
      }
    },
    {
      "alphaMode": "BLEND",
      "doubleSided": true,
      "emissiveTexture": {
        "index": 16
      },
      "name": "Material__6",
      "pbrMetallicRoughness": {
        "baseColorTexture": {
          "index": 15
        },
        "metallicFactor": 0.0
      }
    },
    {
      "alphaMode": "BLEND",
      "doubleSided": true,
      "emissiveTexture": {
        "index": 18
      },
      "name": "Material__7",
      "pbrMetallicRoughness": {
        "baseColorTexture": {
          "index": 17
        },
        "metallicFactor": 0.0
      }
    },
    {
      "alphaMode": "BLEND",
      "doubleSided": true,
      "emissiveTexture": {
        "index": 20
      },
      "name": "Material__8",
      "pbrMetallicRoughness": {
        "baseColorTexture": {
          "index": 19
        },
        "metallicFactor": 0.0
      }
    },
    {
      "alphaMode": "BLEND",
      "doubleSided": true,
      "emissiveTexture": {
        "index": 22
      },
      "name": "Material__9",
      "pbrMetallicRoughness": {
        "baseColorTexture": {
          "index": 21
        },
        "metallicFactor": 0.0
      }
    }
  ],
  "meshes": [
    {
      "name": "Object_0",
      "primitives": [
        {
          "attributes": {
            "NORMAL": 1,
            "POSITION": 0,
            "TEXCOORD_0": 2
          },
          "indices": 3,
          "material": 0,
          "mode": 4
        }
      ]
    },
    {
      "name": "Object_1",
      "primitives": [
        {
          "attributes": {
            "NORMAL": 5,
            "POSITION": 4,
            "TEXCOORD_0": 6
          },
          "indices": 7,
          "material": 1,
          "mode": 4
        }
      ]
    },
    {
      "name": "Object_2",
      "primitives": [
        {
          "attributes": {
            "NORMAL": 9,
            "POSITION": 8,
            "TEXCOORD_0": 10
          },
          "indices": 11,
          "material": 2,
          "mode": 4
        }
      ]
    },
    {
      "name": "Object_3",
      "primitives": [
        {
          "attributes": {
            "NORMAL": 13,
            "POSITION": 12,
            "TEXCOORD_0": 14
          },
          "indices": 15,
          "material": 3,
          "mode": 4
        }
      ]
    },
    {
      "name": "Object_4",
      "primitives": [
        {
          "attributes": {
            "NORMAL": 17,
            "POSITION": 16,
            "TEXCOORD_0": 18
          },
          "indices": 19,
          "material": 4,
          "mode": 4
        }
      ]
    },
    {
      "name": "Object_5",
      "primitives": [
        {
          "attributes": {
            "NORMAL": 21,
            "POSITION": 20,
            "TEXCOORD_0": 22
          },
          "indices": 23,
          "material": 5,
          "mode": 4
        }
      ]
    },
    {
      "name": "Object_6",
      "primitives": [
        {
          "attributes": {
            "NORMAL": 25,
            "POSITION": 24,
            "TEXCOORD_0": 26
          },
          "indices": 27,
          "material": 6,
          "mode": 4
        }
      ]
    },
    {
      "name": "Object_7",
      "primitives": [
        {
          "attributes": {
            "NORMAL": 29,
            "POSITION": 28,
            "TEXCOORD_0": 30
          },
          "indices": 31,
          "material": 7,
          "mode": 4
        }
      ]
    },
    {
      "name": "Object_8",
      "primitives": [
        {
          "attributes": {
            "NORMAL": 33,
            "POSITION": 32,
            "TEXCOORD_0": 34
          },
          "indices": 35,
          "material": 8,
          "mode": 4
        }
      ]
    },
    {
      "name": "Object_9",
      "primitives": [
        {
          "attributes": {
            "NORMAL": 37,
            "POSITION": 36,
            "TEXCOORD_0": 38
          },
          "indices": 39,
          "material": 9,
          "mode": 4
        }
      ]
    },
    {
      "name": "Object_10",
      "primitives": [
        {
          "attributes": {
            "NORMAL": 41,
            "POSITION": 40,
            "TEXCOORD_0": 42
          },
          "indices": 43,
          "material": 10,
          "mode": 4
        }
      ]
    },
    {
      "name": "Object_11",
      "primitives": [
        {
          "attributes": {
            "NORMAL": 45,
            "POSITION": 44,
            "TEXCOORD_0": 46
          },
          "indices": 47,
          "material": 11,
          "mode": 4
        }
      ]
    }
  ],
  "nodes": [
    {
      "children": [
        1
      ],
      "matrix": [
        1.0,
        0.0,
        0.0,
        0.0,
        0.0,
        2.220446049250313e-16,
        -1.0,
        0.0,
        0.0,
        1.0,
        2.220446049250313e-16,
        0.0,
        0.0,
        0.0,
        0.0,
        1.0
      ],
      "name": "Sketchfab_model"
    },
    {
      "children": [
        2,
        3,
        4,
        5,
        6,
        7,
        8,
        9,
        10,
        11,
        12,
        13
      ],
      "name": "willow_obj.obj.cleaner.materialmerger.gles"
    },
    {
      "mesh": 0,
      "name": "Object_2"
    },
    {
      "mesh": 1,
      "name": "Object_3"
    },
    {
      "mesh": 2,
      "name": "Object_4"
    },
    {
      "mesh": 3,
      "name": "Object_5"
    },
    {
      "mesh": 4,
      "name": "Object_6"
    },
    {
      "mesh": 5,
      "name": "Object_7"
    },
    {
      "mesh": 6,
      "name": "Object_8"
    },
    {
      "mesh": 7,
      "name": "Object_9"
    },
    {
      "mesh": 8,
      "name": "Object_10"
    },
    {
      "mesh": 9,
      "name": "Object_11"
    },
    {
      "mesh": 10,
      "name": "Object_12"
    },
    {
      "mesh": 11,
      "name": "Object_13"
    }
  ],
  "samplers": [
    {
      "magFilter": 9729,
      "minFilter": 9987,
      "wrapS": 10497,
      "wrapT": 10497
    }
  ],
  "scene": 0,
  "scenes": [
    {
      "name": "Sketchfab_Scene",
      "nodes": [
        0
      ]
    }
  ],
  "textures": [
    {
      "sampler": 0,
      "source": 0
    },
    {
      "sampler": 0,
      "source": 1
    },
    {
      "sampler": 0,
      "source": 2
    },
    {
      "sampler": 0,
      "source": 3
    },
    {
      "sampler": 0,
      "source": 4
    },
    {
      "sampler": 0,
      "source": 5
    },
    {
      "sampler": 0,
      "source": 6
    },
    {
      "sampler": 0,
      "source": 7
    },
    {
      "sampler": 0,
      "source": 8
    },
    {
      "sampler": 0,
      "source": 9
    },
    {
      "sampler": 0,
      "source": 10
    },
    {
      "sampler": 0,
      "source": 11
    },
    {
      "sampler": 0,
      "source": 12
    },
    {
      "sampler": 0,
      "source": 13
    },
    {
      "sampler": 0,
      "source": 14
    },
    {
      "sampler": 0,
      "source": 15
    },
    {
      "sampler": 0,
      "source": 16
    },
    {
      "sampler": 0,
      "source": 17
    },
    {
      "sampler": 0,
      "source": 18
    },
    {
      "sampler": 0,
      "source": 19
    },
    {
      "sampler": 0,
      "source": 20
    },
    {
      "sampler": 0,
      "source": 21
    },
    {
      "sampler": 0,
      "source": 22
    }
  ]
}
