{
  "accessors": [
    {
      "bufferView": 2,
      "componentType": 5126,
      "count": 536,
      "max": [
        9.008270263671875,
        0.2953700125217438,
        7.009170055389404
      ],
      "min": [
        -8.624329566955566,
        -47.8331413269043,
        -10.202400207519531
      ],
      "type": "VEC3"
    },
    {
      "bufferView": 2,
      "byteOffset": 6432,
      "componentType": 5126,
      "count": 536,
      "max": [
        0.9892218112945557,
        0.9998899102210999,
        0.9896374940872192
      ],
      "min": [
        -0.9892862439155579,
        -0.5300820469856262,
        -0.9926716685295105
      ],
      "type": "VEC3"
    },
    {
      "bufferView": 1,
      "componentType": 5126,
      "count": 536,
      "max": [
        0.9866399765014648,
        0.9764000177383423
      ],
      "min": [
        0.026900000870227814,
        0.010479999706149101
      ],
      "type": "VEC2"
    },
    {
      "bufferView": 0,
      "componentType": 5125,
      "count": 1152,
      "type": "SCALAR"
    },
    {
      "bufferView": 2,
      "byteOffset": 12864,
      "componentType": 5126,
      "count": 150,
      "max": [
        17.31761932373047,
        -8.838109970092773,
        17.69304084777832
      ],
      "min": [
        -17.317609786987305,
        -44.604068756103516,
        -12.668149948120117
      ],
      "type": "VEC3"
    },
    {
      "bufferView": 2,
      "byteOffset": 14664,
      "componentType": 5126,
      "count": 150,
      "max": [
        0.7997211217880249,
        -0.43263858556747437,
        0.7800894379615784
      ],
      "min": [
        -0.7923611402511597,
        -0.998657763004303,
        -0.6162313222885132
      ],
      "type": "VEC3"
    },
    {
      "bufferView": 1,
      "byteOffset": 4288,
      "componentType": 5126,
      "count": 150,
      "max": [
        0.9978899955749512,
        1.0
      ],
      "min": [
        0.0,
        0.0
      ],
      "type": "VEC2"
    },
    {
      "bufferView": 0,
      "byteOffset": 4608,
      "componentType": 5125,
      "count": 480,
      "type": "SCALAR"
    },
    {
      "bufferView": 2,
      "byteOffset": 16464,
      "componentType": 5126,
      "count": 972,
      "max": [
        7.684080123901367,
        -27.816240310668945,
        6.0843400955200195
      ],
      "min": [
        -7.499650001525879,
        -48.864288330078125,
        -9.100589752197266
      ],
      "type": "VEC3"
    },
    {
      "bufferView": 2,
      "byteOffset": 28128,
      "componentType": 5126,
      "count": 972,
      "max": [
        0.9947591423988342,
        0.6266035437583923,
        0.9960265159606934
      ],
      "min": [
        -0.9931451678276062,
        -0.999820351600647,
        -0.989508330821991
      ],
      "type": "VEC3"
    },
    {
      "bufferView": 1,
      "byteOffset": 5488,
      "componentType": 5126,
      "count": 972,
      "max": [
        0.9921900033950806,
        0.9904800057411194
      ],
      "min": [
        0.009530000388622284,
        0.009519999846816063
      ],
      "type": "VEC2"
    },
    {
      "bufferView": 0,
      "byteOffset": 6528,
      "componentType": 5125,
      "count": 5184,
      "type": "SCALAR"
    },
    {
      "bufferView": 2,
      "byteOffset": 39792,
      "componentType": 5126,
      "count": 2400,
      "max": [
        12.202030181884766,
        -26.9822998046875,
        9.360130310058594
      ],
      "min": [
        -11.484939575195313,
        -49.30128860473633,
        -13.716500282287598
      ],
      "type": "VEC3"
    },
    {
      "bufferView": 2,
      "byteOffset": 68592,
      "componentType": 5126,
      "count": 2400,
      "max": [
        0.5960500836372375,
        -0.7622217535972595,
        0.5815090537071228
      ],
      "min": [
        -0.45333153009414673,
        -0.9999696612358093,
        -0.6258914470672607
      ],
      "type": "VEC3"
    },
    {
      "bufferView": 1,
      "byteOffset": 13264,
      "componentType": 5126,
      "count": 2400,
      "max": [
        0.9941700100898743,
        0.9981499910354614
      ],
      "min": [
        0.00851999968290329,
        0.0023799999617040157
      ],
      "type": "VEC2"
    },
    {
      "bufferView": 0,
      "byteOffset": 27264,
      "componentType": 5125,
      "count": 7680,
      "type": "SCALAR"
    }
  ],
  "asset": {
    "extras": {
      "author": "Animium 3d model (https://sketchfab.com/pelister)",
      "license": "CC-BY-4.0 (http://creativecommons.org/licenses/by/4.0/)",
      "source": "https://sketchfab.com/3d-models/flower-3d-model-8792070e9ee942078c26ca44a670a902",
      "title": "Flower 3d model"
    },
    "generator": "Sketchfab-12.68.0",
    "version": "2.0"
  },
  "bufferViews": [
    {
      "buffer": 0,
      "byteLength": 57984,
      "name": "floatBufferViews",
      "target": 34963
    },
    {
      "buffer": 0,
      "byteLength": 32464,
      "byteOffset": 57984,
      "byteStride": 8,
      "name": "floatBufferViews",
      "target": 34962
    },
    {
      "buffer": 0,
      "byteLength": 97392,
      "byteOffset": 90448,
      "byteStride": 12,
      "name": "floatBufferViews",
      "target": 34962
    }
  ],
  "buffers": [
    {
      "byteLength": 187840,
      "uri": "fleur.bin"
    }
  ],
  "images": [
    {
      "uri": "textures/Material__47_baseColor.png"
    },
    {
      "uri": "textures/Material__48_baseColor.png"
    },
    {
      "uri": "textures/Material__49_baseColor.png"
    },
    {
      "uri": "textures/Material__50_baseColor.png"
    }
  ],
  "materials": [
    {
      "alphaMode": "BLEND",
      "doubleSided": true,
      "name": "Material__47",
      "pbrMetallicRoughness": {
        "baseColorTexture": {
          "index": 0
        },
        "metallicFactor": 0.46,
        "roughnessFactor": 0.49
      }
    },
    {
      "alphaMode": "BLEND",
      "doubleSided": true,
      "name": "Material__48",
      "pbrMetallicRoughness": {
        "baseColorTexture": {
          "index": 1
        },
        "metallicFactor": 0.59,
        "roughnessFactor": 0.76
      }
    },
    {
      "alphaMode": "BLEND",
      "doubleSided": true,
      "name": "Material__49",
      "pbrMetallicRoughness": {
        "baseColorTexture": {
          "index": 2
        },
        "metallicFactor": 0.34,
        "roughnessFactor": 0.32
      }
    },
    {
      "alphaMode": "BLEND",
      "doubleSided": true,
      "name": "Material__50",
      "pbrMetallicRoughness": {
        "baseColorTexture": {
          "index": 3
        },
        "metallicFactor": 0.22,
        "roughnessFactor": 0.26
      }
    }
  ],
  "meshes": [
    {
      "name": "Object_0",
      "primitives": [
        {
          "attributes": {
            "NORMAL": 1,
            "POSITION": 0,
            "TEXCOORD_0": 2
          },
          "indices": 3,
          "material": 0,
          "mode": 4
        }
      ]
    },
    {
      "name": "Object_1",
      "primitives": [
        {
          "attributes": {
            "NORMAL": 5,
            "POSITION": 4,
            "TEXCOORD_0": 6
          },
          "indices": 7,
          "material": 1,
          "mode": 4
        }
      ]
    },
    {
      "name": "Object_2",
      "primitives": [
        {
          "attributes": {
            "NORMAL": 9,
            "POSITION": 8,
            "TEXCOORD_0": 10
          },
          "indices": 11,
          "material": 2,
          "mode": 4
        }
      ]
    },
    {
      "name": "Object_3",
      "primitives": [
        {
          "attributes": {
            "NORMAL": 13,
            "POSITION": 12,
            "TEXCOORD_0": 14
          },
          "indices": 15,
          "material": 3,
          "mode": 4
        }
      ]
    }
  ],
  "nodes": [
    {
      "children": [
        1
      ],
      "matrix": [
        1.0,
        0.0,
        0.0,
        0.0,
        0.0,
        -1.0,
        -2.220446049250313e-16,
        0.0,
        0.0,
        2.220446049250313e-16,
        -1.0,
        0.0,
        0.0,
        -25.892915725708015,
        28.931425094604485,
        1.0
      ],
      "name": "Sketchfab_model"
    },
    {
      "children": [
        2,
        3,
        4,
        5
      ],
      "name": "marigold.obj.cleaner"
    },
    {
      "mesh": 0,
      "name": "Object_2"
    },
    {
      "mesh": 1,
      "name": "Object_3"
    },
    {
      "mesh": 2,
      "name": "Object_4"
    },
    {
      "mesh": 3,
      "name": "Object_5"
    }
  ],
  "samplers": [
    {
      "magFilter": 9729,
      "minFilter": 9987,
      "wrapS": 10497,
      "wrapT": 10497
    }
  ],
  "scene": 0,
  "scenes": [
    {
      "name": "Sketchfab_Scene",
      "nodes": [
        0
      ]
    }
  ],
  "textures": [
    {
      "sampler": 0,
      "source": 0
    },
    {
      "sampler": 0,
      "source": 1
    },
    {
      "sampler": 0,
      "source": 2
    },
    {
      "sampler": 0,
      "source": 3
    }
  ]
}
