{
  "accessors": [
    {
      "bufferView": 2,
      "componentType": 5126,
      "count": 65532,
      "max": [
        1.2605791091918945,
        1.2652955055236816,
        4.753795146942139
      ],
      "min": [
        -1.215990662574768,
        -1.2676301002502441,
        0.0
      ],
      "type": "VEC3"
    },
    {
      "bufferView": 2,
      "byteOffset": 786384,
      "componentType": 5126,
      "count": 65532,
      "max": [
        0.9999966621398926,
        0.9999901056289673,
        0.9999897480010986
      ],
      "min": [
        -0.9999994039535522,
        -0.9999985694885254,
        -1.0
      ],
      "type": "VEC3"
    },
    {
      "bufferView": 3,
      "componentType": 5126,
      "count": 65532,
      "max": [
        0.9996439218521118,
        0.9989879727363586,
        0.9999998211860657,
        -1.0
      ],
      "min": [
        -0.9996150135993958,
        -0.9996539950370789,
        -0.9989720582962036,
        -1.0
      ],
      "type": "VEC4"
    },
    {
      "bufferView": 1,
      "componentType": 5126,
      "count": 65532,
      "max": [
        1.9244418144226074,
        0.6165287494659424
      ],
      "min": [
        -0.9244418144226074,
        0.38347122073173523
      ],
      "type": "VEC2"
    },
    {
      "bufferView": 1,
      "byteOffset": 524256,
      "componentType": 5126,
      "count": 65532,
      "max": [
        1.9244418144226074,
        0.6165287494659424
      ],
      "min": [
        -0.9244418144226074,
        0.38347122073173523
      ],
      "type": "VEC2"
    },
    {
      "bufferView": 1,
      "byteOffset": 1048512,
      "componentType": 5126,
      "count": 65532,
      "max": [
        1.9244418144226074,
        0.6165287494659424
      ],
      "min": [
        -0.9244418144226074,
        0.38347122073173523
      ],
      "type": "VEC2"
    },
    {
      "bufferView": 0,
      "componentType": 5125,
      "count": 318186,
      "type": "SCALAR"
    },
    {
      "bufferView": 2,
      "byteOffset": 1572768,
      "componentType": 5126,
      "count": 65533,
      "max": [
        1.2489635944366455,
        1.2445025444030762,
        4.52377986907959
      ],
      "min": [
        -1.1949150562286377,
        -1.2514457702636719,
        0.3592672049999237
      ],
      "type": "VEC3"
    },
    {
      "bufferView": 2,
      "byteOffset": 2359164,
      "componentType": 5126,
      "count": 65533,
      "max": [
        0.9999973773956299,
        0.9999699592590332,
        0.9776338338851929
      ],
      "min": [
        -0.9999951124191284,
        -0.9999769926071167,
        -0.9701429605484009
      ],
      "type": "VEC3"
    },
    {
      "bufferView": 3,
      "byteOffset": 1048512,
      "componentType": 5126,
      "count": 65533,
      "max": [
        0.9270622134208679,
        0.944162905216217,
        0.9998368620872498,
        -1.0
      ],
      "min": [
        -0.9567850828170776,
        -0.9503157734870911,
        0.21013057231903076,
        -1.0
      ],
      "type": "VEC4"
    },
    {
      "bufferView": 1,
      "byteOffset": 1572768,
      "componentType": 5126,
      "count": 65533,
      "max": [
        1.9244418144226074,
        0.6165287494659424
      ],
      "min": [
        -0.9244418144226074,
        0.38347122073173523
      ],
      "type": "VEC2"
    },
    {
      "bufferView": 1,
      "byteOffset": 2097032,
      "componentType": 5126,
      "count": 65533,
      "max": [
        1.9244418144226074,
        0.6165287494659424
      ],
      "min": [
        -0.9244418144226074,
        0.38347122073173523
      ],
      "type": "VEC2"
    },
    {
      "bufferView": 1,
      "byteOffset": 2621296,
      "componentType": 5126,
      "count": 65533,
      "max": [
        1.9244418144226074,
        0.6165287494659424
      ],
      "min": [
        -0.9244418144226074,
        0.38347122073173523
      ],
      "type": "VEC2"
    },
    {
      "bufferView": 0,
      "byteOffset": 1272744,
      "componentType": 5125,
      "count": 289113,
      "type": "SCALAR"
    },
    {
      "bufferView": 2,
      "byteOffset": 3145560,
      "componentType": 5126,
      "count": 40410,
      "max": [
        1.1846513748168945,
        1.2655645608901978,
        4.758401870727539
      ],
      "min": [
        -1.2259376049041748,
        -1.2002232074737549,
        0.3541642427444458
      ],
      "type": "VEC3"
    },
    {
      "bufferView": 2,
      "byteOffset": 3630480,
      "componentType": 5126,
      "count": 40410,
      "max": [
        0.9999985694885254,
        0.9999682903289795,
        0.9999059438705444
      ],
      "min": [
        -0.9999985694885254,
        -0.9999806880950928,
        -0.8863546848297119
      ],
      "type": "VEC3"
    },
    {
      "bufferView": 3,
      "byteOffset": 2097040,
      "componentType": 5126,
      "count": 40410,
      "max": [
        0.9956011176109314,
        0.9953813552856445,
        1.0,
        -1.0
      ],
      "min": [
        -0.9979250431060791,
        -0.9969247579574585,
        -0.8340446352958679,
        -1.0
      ],
      "type": "VEC4"
    },
    {
      "bufferView": 1,
      "byteOffset": 3145560,
      "componentType": 5126,
      "count": 40410,
      "max": [
        1.9244418144226074,
        0.6165287494659424
      ],
      "min": [
        -0.9244418144226074,
        0.38347122073173523
      ],
      "type": "VEC2"
    },
    {
      "bufferView": 1,
      "byteOffset": 3468840,
      "componentType": 5126,
      "count": 40410,
      "max": [
        1.9244418144226074,
        0.6165287494659424
      ],
      "min": [
        -0.9244418144226074,
        0.38347122073173523
      ],
      "type": "VEC2"
    },
    {
      "bufferView": 1,
      "byteOffset": 3792120,
      "componentType": 5126,
      "count": 40410,
      "max": [
        1.9244418144226074,
        0.6165287494659424
      ],
      "min": [
        -0.9244418144226074,
        0.38347122073173523
      ],
      "type": "VEC2"
    },
    {
      "bufferView": 0,
      "byteOffset": 2429196,
      "componentType": 5125,
      "count": 172413,
      "type": "SCALAR"
    },
    {
      "bufferView": 2,
      "byteOffset": 4115400,
      "componentType": 5126,
      "count": 65532,
      "max": [
        1.3797229528427124,
        1.4618548154830933,
        4.9222540855407715
      ],
      "min": [
        -1.420138955116272,
        -1.3857587575912476,
        0.2713194191455841
      ],
      "type": "VEC3"
    },
    {
      "bufferView": 2,
      "byteOffset": 4901784,
      "componentType": 5126,
      "count": 65532,
      "max": [
        0.9999311566352844,
        0.9997870326042175,
        0.9999316930770874
      ],
      "min": [
        -0.9997164011001587,
        -0.9998345375061035,
        -0.7119516730308533
      ],
      "type": "VEC3"
    },
    {
      "bufferView": 3,
      "byteOffset": 2743600,
      "componentType": 5126,
      "count": 65532,
      "max": [
        0.9999732375144958,
        0.9999716281890869,
        0.9438251852989197,
        1.0
      ],
      "min": [
        -0.9998775124549866,
        -0.9999938607215881,
        -0.9409465789794922,
        1.0
      ],
      "type": "VEC4"
    },
    {
      "bufferView": 1,
      "byteOffset": 4115400,
      "componentType": 5126,
      "count": 65532,
      "max": [
        1.0,
        1.0
      ],
      "min": [
        0.0,
        0.0
      ],
      "type": "VEC2"
    },
    {
      "bufferView": 0,
      "byteOffset": 3118848,
      "componentType": 5125,
      "count": 98298,
      "type": "SCALAR"
    },
    {
      "bufferView": 2,
      "byteOffset": 5688168,
      "componentType": 5126,
      "count": 40524,
      "max": [
        1.4542274475097656,
        1.3350698947906494,
        2.4528651237487793
      ],
      "min": [
        -1.420413851737976,
        -1.4825774431228638,
        0.27422040700912476
      ],
      "type": "VEC3"
    },
    {
      "bufferView": 2,
      "byteOffset": 6174456,
      "componentType": 5126,
      "count": 40524,
      "max": [
        0.9997844696044922,
        0.999840497970581,
        0.9999607801437378
      ],
      "min": [
        -0.9998948574066162,
        -0.9999651312828064,
        -0.7553560733795166
      ],
      "type": "VEC3"
    },
    {
      "bufferView": 3,
      "byteOffset": 3792112,
      "componentType": 5126,
      "count": 40524,
      "max": [
        0.9998246431350708,
        0.9998539686203003,
        0.8869447112083435,
        1.0
      ],
      "min": [
        -0.9999994039535522,
        -0.9996504783630371,
        -0.9476169943809509,
        1.0
      ],
      "type": "VEC4"
    },
    {
      "bufferView": 1,
      "byteOffset": 4639656,
      "componentType": 5126,
      "count": 40524,
      "max": [
        1.0,
        1.0
      ],
      "min": [
        0.0,
        0.0
      ],
      "type": "VEC2"
    },
    {
      "bufferView": 0,
      "byteOffset": 3512040,
      "componentType": 5125,
      "count": 60786,
      "type": "SCALAR"
    }
  ],
  "asset": {
    "extras": {
      "author": "BazukaliKartal (https://sketchfab.com/BazukaliKartal)",
      "license": "CC-BY-4.0 (http://creativecommons.org/licenses/by/4.0/)",
      "source": "https://sketchfab.com/3d-models/pine-tree-df42724e17eb4cfdb8b380ecc413b158",
      "title": "Pine Tree"
    },
    "generator": "Sketchfab-13.12.0",
    "version": "2.0"
  },
  "bufferViews": [
    {
      "buffer": 0,
      "byteLength": 3755184,
      "name": "floatBufferViews",
      "target": 34963
    },
    {
      "buffer": 0,
      "byteLength": 4963848,
      "byteOffset": 3755184,
      "byteStride": 8,
      "name": "floatBufferViews",
      "target": 34962
    },
    {
      "buffer": 0,
      "byteLength": 6660744,
      "byteOffset": 8719032,
      "byteStride": 12,
      "name": "floatBufferViews",
      "target": 34962
    },
    {
      "buffer": 0,
      "byteLength": 4440496,
      "byteOffset": 15379776,
      "byteStride": 16,
      "name": "floatBufferViews",
      "target": 34962
    }
  ],
  "buffers": [
    {
      "byteLength": 19820272,
      "uri": "scene.bin"
    }
  ],
  "images": [
    {
      "uri": "textures/Tree_Bark_baseColor.jpeg"
    },
    {
      "uri": "textures/Tree_Bark_metallicRoughness.png"
    },
    {
      "uri": "textures/Tree_Bark_normal.png"
    },
    {
      "uri": "textures/Leaf_baseColor.png"
    },
    {
      "uri": "textures/Leaf_normal.png"
    }
  ],
  "materials": [
    {
      "doubleSided": true,
      "name": "Tree_Bark",
      "normalTexture": {
        "index": 2
      },
      "pbrMetallicRoughness": {
        "baseColorTexture": {
          "index": 0
        },
        "metallicFactor": 0.0,
        "metallicRoughnessTexture": {
          "index": 1
        }
      }
    },
    {
      "alphaCutoff": 0.6685236768802227,
      "alphaMode": "MASK",
      "doubleSided": true,
      "name": "Leaf",
      "normalTexture": {
        "index": 4
      },
      "pbrMetallicRoughness": {
        "baseColorFactor": [
          0.6218092489834087,
          0.6218092489834087,
          0.6218092489834087,
          1.0
        ],
        "baseColorTexture": {
          "index": 3
        },
        "metallicFactor": 0.0,
        "roughnessFactor": 0.0
      }
    }
  ],
  "meshes": [
    {
      "name": "tree_Tree Bark_0",
      "primitives": [
        {
          "attributes": {
            "NORMAL": 1,
            "POSITION": 0,
            "TANGENT": 2,
            "TEXCOORD_0": 3,
            "TEXCOORD_1": 4,
            "TEXCOORD_2": 5
          },
          "indices": 6,
          "material": 0,
          "mode": 4
        }
      ]
    },
    {
      "name": "tree_Tree Bark_0",
      "primitives": [
        {
          "attributes": {
            "NORMAL": 8,
            "POSITION": 7,
            "TANGENT": 9,
            "TEXCOORD_0": 10,
            "TEXCOORD_1": 11,
            "TEXCOORD_2": 12
          },
          "indices": 13,
          "material": 0,
          "mode": 4
        }
      ]
    },
    {
      "name": "tree_Tree Bark_0",
      "primitives": [
        {
          "attributes": {
            "NORMAL": 15,
            "POSITION": 14,
            "TANGENT": 16,
            "TEXCOORD_0": 17,
            "TEXCOORD_1": 18,
            "TEXCOORD_2": 19
          },
          "indices": 20,
          "material": 0,
          "mode": 4
        }
      ]
    },
    {
      "name": "leaves_Leaf_0",
      "primitives": [
        {
          "attributes": {
            "NORMAL": 22,
            "POSITION": 21,
            "TANGENT": 23,
            "TEXCOORD_0": 24
          },
          "indices": 25,
          "material": 1,
          "mode": 4
        }
      ]
    },
    {
      "name": "leaves_Leaf_0",
      "primitives": [
        {
          "attributes": {
            "NORMAL": 27,
            "POSITION": 26,
            "TANGENT": 28,
            "TEXCOORD_0": 29
          },
          "indices": 30,
          "material": 1,
          "mode": 4
        }
      ]
    }
  ],
  "nodes": [
    {
      "children": [
        1
      ],
      "matrix": [
        1.0,
        0.0,
        0.0,
        0.0,
        0.0,
        2.220446049250313e-16,
        -1.0,
        0.0,
        0.0,
        1.0,
        2.220446049250313e-16,
        0.0,
        0.0,
        0.0,
        0.0,
        1.0
      ],
      "name": "Sketchfab_model"
    },
    {
      "children": [
        2
      ],
      "matrix": [
        0.009999999776482582,
        0.0,
        0.0,
        0.0,
        0.0,
        0.0,
        0.009999999776482582,
        0.0,
        0.0,
        -0.009999999776482582,
        0.0,
        0.0,
        0.0,
        0.0,
        0.0,
        1.0
      ],
      "name": "f7f72fece5ce427a97e9d3f28a3032d8.fbx"
    },
    {
      "children": [
        3,
        6,
        9,
        12,
        14
      ],
      "name": "RootNode"
    },
    {
      "children": [
        4
      ],
      "matrix": [
        62.2267356441735,
        68.70424777471732,
        -37.51745871964673,
        0.0,
        -78.24957604891964,
        55.9393915441326,
        -27.345718528438212,
        0.0,
        2.199367749238085,
        46.37359683311809,
        88.57003315108436,
        0.0,
        0.0,
        0.0,
        0.0,
        1.0
      ],
      "name": "Sun"
    },
    {
      "children": [
        5
      ],
      "matrix": [
        1.0,
        0.0,
        0.0,
        0.0,
        0.0,
        2.220446049250313e-16,
        1.0,
        0.0,
        0.0,
        -1.0,
        2.220446049250313e-16,
        0.0,
        0.0,
        0.0,
        0.0,
        1.0
      ],
      "name": "Object_4"
    },
    {
      "name": "Object_5"
    },
    {
      "children": [
        7
      ],
      "matrix": [
        73.45593084688163,
        -67.4507314940528,
        -7.390875748876979,
        0.0,
        38.02439383433172,
        31.897113988456738,
        86.8142821933064,
        0.0,
        -56.19939231833189,
        -66.58057479569092,
        49.07805378094804,
        0.0,
        179.79396057128906,
        276.9678955078125,
        164.19625854492188,
        1.0
      ],
      "name": "Sun.001"
    },
    {
      "children": [
        8
      ],
      "matrix": [
        1.0,
        0.0,
        0.0,
        0.0,
        0.0,
        2.220446049250313e-16,
        1.0,
        0.0,
        0.0,
        -1.0,
        2.220446049250313e-16,
        0.0,
        0.0,
        0.0,
        0.0,
        1.0
      ],
      "name": "Object_7"
    },
    {
      "name": "Object_8"
    },
    {
      "children": [
        10
      ],
      "matrix": [
        62.22672468340579,
        -78.05470536801107,
        5.941058761681436,
        0.0,
        -78.2495758836439,
        -62.23599006177383,
        1.919346029718184,
        0.0,
        2.199337187587265,
        -5.8432003452499846,
        -99.8049093264483,
        0.0,
        -224.4149627685547,
        -191.37103271484375,
        3.994464874267578,
        1.0
      ],
      "name": "Sun.002"
    },
    {
      "children": [
        11
      ],
      "matrix": [
        1.0,
        0.0,
        0.0,
        0.0,
        0.0,
        2.220446049250313e-16,
        1.0,
        0.0,
        0.0,
        -1.0,
        2.220446049250313e-16,
        0.0,
        0.0,
        0.0,
        0.0,
        1.0
      ],
      "name": "Object_10"
    },
    {
      "name": "Object_11"
    },
    {
      "children": [
        13
      ],
      "matrix": [
        92.9073473586404,
        -10.591817700184555,
        35.44067234612005,
        0.0,
        9.896180647891835,
        99.43748504469364,
        3.7752055004489478,
        0.0,
        -35.64117614832689,
        -0.00017032960511605865,
        93.43291504867526,
        0.0,
        -1676.5811767578125,
        432.147216796875,
        -665.5992431640625,
        1.0
      ],
      "name": "Camera"
    },
    {
      "name": "Object_13"
    },
    {
      "children": [
        15,
        16,
        17,
        18
      ],
      "matrix": [
        100.0,
        0.0,
        0.0,
        0.0,
        0.0,
        -1.629206793918314e-05,
        -99.99999999999868,
        0.0,
        0.0,
        99.99999999999868,
        -1.629206793918314e-05,
        0.0,
        0.0,
        0.0,
        0.0,
        1.0
      ],
      "name": "tree"
    },
    {
      "mesh": 0,
      "name": "tree_Tree Bark_0"
    },
    {
      "mesh": 1,
      "name": "tree_Tree Bark_0"
    },
    {
      "mesh": 2,
      "name": "tree_Tree Bark_0"
    },
    {
      "children": [
        19,
        20
      ],
      "matrix": [
        1.0,
        0.0,
        0.0,
        0.0,
        0.0,
        1.0,
        -2.646977960169688e-23,
        0.0,
        0.0,
        2.646977960169688e-23,
        1.0,
        0.0,
        0.0,
        0.0,
        0.0,
        1.0
      ],
      "name": "leaves"
    },
    {
      "mesh": 3,
      "name": "leaves_Leaf_0"
    },
    {
      "mesh": 4,
      "name": "leaves_Leaf_0"
    }
  ],
  "samplers": [
    {
      "magFilter": 9729,
      "minFilter": 9987,
      "wrapS": 10497,
      "wrapT": 10497
    },
    {
      "magFilter": 9729,
      "minFilter": 9729,
      "wrapS": 33648,
      "wrapT": 33648
    }
  ],
  "scene": 0,
  "scenes": [
    {
      "name": "Sketchfab_Scene",
      "nodes": [
        0
      ]
    }
  ],
  "textures": [
    {
      "sampler": 0,
      "source": 0
    },
    {
      "sampler": 0,
      "source": 1
    },
    {
      "sampler": 0,
      "source": 2
    },
    {
      "sampler": 0,
      "source": 3
    },
    {
      "sampler": 1,
      "source": 4
    }
  ]
}
