{
  "accessors": [
    {
      "bufferView": 2,
      "componentType": 5126,
      "count": 65532,
      "max": [
        0.3065357208251953,
        0.23934058845043182,
        1.064136028289795
      ],
      "min": [
        -0.32815787196159363,
        -0.30074140429496765,
        0.0
      ],
      "type": "VEC3"
    },
    {
      "bufferView": 2,
      "byteOffset": 786384,
      "componentType": 5126,
      "count": 65532,
      "max": [
        0.9999855160713196,
        0.9999980926513672,
        0.0018491452792659402
      ],
      "min": [
        -0.9999992251396179,
        -0.9999831914901733,
        -0.0018485423643141985
      ],
      "type": "VEC3"
    },
    {
      "bufferView": 1,
      "componentType": 5126,
      "count": 65532,
      "max": [
        1.0,
        1.0
      ],
      "min": [
        0.0,
        0.0
      ],
      "type": "VEC2"
    },
    {
      "bufferView": 0,
      "componentType": 5125,
      "count": 101802,
      "type": "SCALAR"
    },
    {
      "bufferView": 2,
      "byteOffset": 1572768,
      "componentType": 5126,
      "count": 65532,
      "max": [
        0.2382681965827942,
        0.21114206314086914,
        1.0495153665542603
      ],
      "min": [
        -0.37032052874565125,
        -0.30074140429496765,
        0.0
      ],
      "type": "VEC3"
    },
    {
      "bufferView": 2,
      "byteOffset": 2359152,
      "componentType": 5126,
      "count": 65532,
      "max": [
        0.9999994039535522,
        0.9999808073043823,
        0.001848267507739365
      ],
      "min": [
        -0.9999808073043823,
        -0.9999994039535522,
        -0.001848423620685935
      ],
      "type": "VEC3"
    },
    {
      "bufferView": 1,
      "byteOffset": 524256,
      "componentType": 5126,
      "count": 65532,
      "max": [
        1.0,
        1.0
      ],
      "min": [
        0.0,
        0.0
      ],
      "type": "VEC2"
    },
    {
      "bufferView": 0,
      "byteOffset": 407208,
      "componentType": 5125,
      "count": 101022,
      "type": "SCALAR"
    },
    {
      "bufferView": 2,
      "byteOffset": 3145536,
      "componentType": 5126,
      "count": 65532,
      "max": [
        0.24178871512413025,
        0.11947618424892426,
        1.0783894062042236
      ],
      "min": [
        -0.37879857420921326,
        -0.5053068995475769,
        0.0
      ],
      "type": "VEC3"
    },
    {
      "bufferView": 2,
      "byteOffset": 3931920,
      "componentType": 5126,
      "count": 65532,
      "max": [
        0.9999994039535522,
        0.9999994039535522,
        0.001849602209404111
      ],
      "min": [
        -0.9999808073043823,
        -0.9999808073043823,
        -0.0018504300387576222
      ],
      "type": "VEC3"
    },
    {
      "bufferView": 1,
      "byteOffset": 1048512,
      "componentType": 5126,
      "count": 65532,
      "max": [
        1.0,
        1.0
      ],
      "min": [
        0.0,
        0.0
      ],
      "type": "VEC2"
    },
    {
      "bufferView": 0,
      "byteOffset": 811296,
      "componentType": 5125,
      "count": 101028,
      "type": "SCALAR"
    },
    {
      "bufferView": 2,
      "byteOffset": 4718304,
      "componentType": 5126,
      "count": 65533,
      "max": [
        0.24368563294410706,
        0.2638111710548401,
        1.0941989421844482
      ],
      "min": [
        -0.34509897232055664,
        -0.4586676061153412,
        0.0
      ],
      "type": "VEC3"
    },
    {
      "bufferView": 2,
      "byteOffset": 5504700,
      "componentType": 5126,
      "count": 65533,
      "max": [
        0.9999855160713196,
        0.9999831914901733,
        0.0018492485396564007
      ],
      "min": [
        -0.9999992251396179,
        -0.999998152256012,
        -0.0018504324834793806
      ],
      "type": "VEC3"
    },
    {
      "bufferView": 1,
      "byteOffset": 1572768,
      "componentType": 5126,
      "count": 65533,
      "max": [
        1.0,
        1.0
      ],
      "min": [
        0.0,
        0.0
      ],
      "type": "VEC2"
    },
    {
      "bufferView": 0,
      "byteOffset": 1215408,
      "componentType": 5125,
      "count": 102249,
      "type": "SCALAR"
    },
    {
      "bufferView": 2,
      "byteOffset": 6291096,
      "componentType": 5126,
      "count": 65532,
      "max": [
        0.1378890573978424,
        0.19524556398391724,
        1.0769851207733154
      ],
      "min": [
        -0.4161986708641052,
        -0.3165788948535919,
        0.0
      ],
      "type": "VEC3"
    },
    {
      "bufferView": 2,
      "byteOffset": 7077480,
      "componentType": 5126,
      "count": 65532,
      "max": [
        0.9999831914901733,
        0.9999855160713196,
        0.0018488516798242927
      ],
      "min": [
        -0.9999980926513672,
        -0.9999992251396179,
        -0.001848988002166152
      ],
      "type": "VEC3"
    },
    {
      "bufferView": 1,
      "byteOffset": 2097032,
      "componentType": 5126,
      "count": 65532,
      "max": [
        1.0,
        1.0
      ],
      "min": [
        0.0,
        0.0
      ],
      "type": "VEC2"
    },
    {
      "bufferView": 0,
      "byteOffset": 1624404,
      "componentType": 5125,
      "count": 100596,
      "type": "SCALAR"
    },
    {
      "bufferView": 2,
      "byteOffset": 7863864,
      "componentType": 5126,
      "count": 47993,
      "max": [
        0.1875520646572113,
        0.25361454486846924,
        1.0973594188690186
      ],
      "min": [
        -0.4262641966342926,
        -0.21899254620075226,
        0.0
      ],
      "type": "VEC3"
    },
    {
      "bufferView": 2,
      "byteOffset": 8439780,
      "componentType": 5126,
      "count": 47993,
      "max": [
        0.9999831914901733,
        0.9999992251396179,
        0.0018485751934349537
      ],
      "min": [
        -0.999998152256012,
        -0.9999855160713196,
        -0.0018490346847102046
      ],
      "type": "VEC3"
    },
    {
      "bufferView": 1,
      "byteOffset": 2621288,
      "componentType": 5126,
      "count": 47993,
      "max": [
        1.0,
        1.0
      ],
      "min": [
        0.0,
        0.0
      ],
      "type": "VEC2"
    },
    {
      "bufferView": 0,
      "byteOffset": 2026788,
      "componentType": 5125,
      "count": 74103,
      "type": "SCALAR"
    }
  ],
  "asset": {
    "extras": {
      "author": "Somersby (https://sketchfab.com/Somersby)",
      "license": "CC-BY-NC-4.0 (http://creativecommons.org/licenses/by-nc/4.0/)",
      "source": "https://sketchfab.com/3d-models/red-baron-4f6fdcedd61d4783a5862f92282e72a8",
      "title": "Red Baron"
    },
    "generator": "Sketchfab-12.65.0",
    "version": "2.0"
  },
  "bufferViews": [
    {
      "buffer": 0,
      "byteLength": 2323200,
      "name": "floatBufferViews",
      "target": 34963
    },
    {
      "buffer": 0,
      "byteLength": 3005232,
      "byteOffset": 2323200,
      "byteStride": 8,
      "name": "floatBufferViews",
      "target": 34962
    },
    {
      "buffer": 0,
      "byteLength": 9015696,
      "byteOffset": 5328432,
      "byteStride": 12,
      "name": "floatBufferViews",
      "target": 34962
    }
  ],
  "buffers": [
    {
      "byteLength": 14344128,
      "uri": "scene.bin"
    }
  ],
  "images": [
    {
      "uri": "textures/red-baron-grass-ornamental-Va7qqJC-600_baseColor.png"
    }
  ],
  "materials": [
    {
      "alphaCutoff": 0.4529344512195122,
      "alphaMode": "MASK",
      "doubleSided": true,
      "name": "red-baron-grass-ornamental-Va7qqJC-600",
      "pbrMetallicRoughness": {
        "baseColorTexture": {
          "index": 0
        },
        "metallicFactor": 0.0,
        "roughnessFactor": 0.9577051495
      }
    }
  ],
  "meshes": [
    {
      "name": "red-baron-grass-ornamental-Va7qqJC-600_red-baron-grass-ornamental-Va7qqJC-600_0",
      "primitives": [
        {
          "attributes": {
            "NORMAL": 1,
            "POSITION": 0,
            "TEXCOORD_0": 2
          },
          "indices": 3,
          "material": 0,
          "mode": 4
        }
      ]
    },
    {
      "name": "red-baron-grass-ornamental-Va7qqJC-600_red-baron-grass-ornamental-Va7qqJC-600_0",
      "primitives": [
        {
          "attributes": {
            "NORMAL": 5,
            "POSITION": 4,
            "TEXCOORD_0": 6
          },
          "indices": 7,
          "material": 0,
          "mode": 4
        }
      ]
    },
    {
      "name": "red-baron-grass-ornamental-Va7qqJC-600_red-baron-grass-ornamental-Va7qqJC-600_0",
      "primitives": [
        {
          "attributes": {
            "NORMAL": 9,
            "POSITION": 8,
            "TEXCOORD_0": 10
          },
          "indices": 11,
          "material": 0,
          "mode": 4
        }
      ]
    },
    {
      "name": "red-baron-grass-ornamental-Va7qqJC-600_red-baron-grass-ornamental-Va7qqJC-600_0",
      "primitives": [
        {
          "attributes": {
            "NORMAL": 13,
            "POSITION": 12,
            "TEXCOORD_0": 14
          },
          "indices": 15,
          "material": 0,
          "mode": 4
        }
      ]
    },
    {
      "name": "red-baron-grass-ornamental-Va7qqJC-600_red-baron-grass-ornamental-Va7qqJC-600_0",
      "primitives": [
        {
          "attributes": {
            "NORMAL": 17,
            "POSITION": 16,
            "TEXCOORD_0": 18
          },
          "indices": 19,
          "material": 0,
          "mode": 4
        }
      ]
    },
    {
      "name": "red-baron-grass-ornamental-Va7qqJC-600_red-baron-grass-ornamental-Va7qqJC-600_0",
      "primitives": [
        {
          "attributes": {
            "NORMAL": 21,
            "POSITION": 20,
            "TEXCOORD_0": 22
          },
          "indices": 23,
          "material": 0,
          "mode": 4
        }
      ]
    }
  ],
  "nodes": [
    {
      "children": [
        1
      ],
      "matrix": [
        0.010737674310803413,
        0.0,
        0.0,
        0.0,
        0.0,
        2.3842426501560018e-18,
        -0.010737674310803413,
        0.0,
        0.0,
        0.010737674310803413,
        2.3842426501560018e-18,
        0.0,
        0.0,
        0.0,
        0.0,
        1.0
      ],
      "name": "Sketchfab_model"
    },
    {
      "children": [
        2
      ],
      "matrix": [
        1.0,
        0.0,
        0.0,
        0.0,
        0.0,
        0.0,
        1.0,
        0.0,
        0.0,
        -1.0,
        0.0,
        0.0,
        0.0,
        0.0,
        0.0,
        1.0
      ],
      "name": "Grass.fbx"
    },
    {
      "children": [
        3
      ],
      "name": "RootNode"
    },
    {
      "children": [
        4,
        5,
        6,
        7,
        8,
        9
      ],
      "matrix": [
        100.0,
        0.0,
        0.0,
        0.0,
        -0.0,
        -1.629206793918314e-05,
        -99.99999999999868,
        0.0,
        0.0,
        99.99999999999868,
        -1.629206793918314e-05,
        0.0,
        -0.7603167295455933,
        0.0,
        -10.413887977600098,
        1.0
      ],
      "name": "red-baron-grass-ornamental-Va7qqJC-600"
    },
    {
      "mesh": 0,
      "name": "red-baron-grass-ornamental-Va7qqJC-600_red-baron-grass-ornamental-Va7qqJC-600_0"
    },
    {
      "mesh": 1,
      "name": "red-baron-grass-ornamental-Va7qqJC-600_red-baron-grass-ornamental-Va7qqJC-600_0"
    },
    {
      "mesh": 2,
      "name": "red-baron-grass-ornamental-Va7qqJC-600_red-baron-grass-ornamental-Va7qqJC-600_0"
    },
    {
      "mesh": 3,
      "name": "red-baron-grass-ornamental-Va7qqJC-600_red-baron-grass-ornamental-Va7qqJC-600_0"
    },
    {
      "mesh": 4,
      "name": "red-baron-grass-ornamental-Va7qqJC-600_red-baron-grass-ornamental-Va7qqJC-600_0"
    },
    {
      "mesh": 5,
      "name": "red-baron-grass-ornamental-Va7qqJC-600_red-baron-grass-ornamental-Va7qqJC-600_0"
    }
  ],
  "samplers": [
    {
      "magFilter": 9729,
      "minFilter": 9987,
      "wrapS": 10497,
      "wrapT": 10497
    }
  ],
  "scene": 0,
  "scenes": [
    {
      "name": "Sketchfab_Scene",
      "nodes": [
        0
      ]
    }
  ],
  "textures": [
    {
      "sampler": 0,
      "source": 0
    }
  ]
}
