{
  "accessors": [
    {
      "bufferView": 2,
      "componentType": 5126,
      "count": 7512,
      "max": [
        28.781240463256836,
        1.738919973373413,
        72.07247924804688
      ],
      "min": [
        -28.781240463256836,
        -4.359710216522217,
        0.004100000020116568
      ],
      "type": "VEC3"
    },
    {
      "bufferView": 2,
      "byteOffset": 90144,
      "componentType": 5126,
      "count": 7512,
      "max": [
        1.0,
        1.0,
        1.0
      ],
      "min": [
        -1.0,
        -1.0,
        -1.0
      ],
      "type": "VEC3"
    },
    {
      "bufferView": 1,
      "componentType": 5126,
      "count": 7512,
      "max": [
        0.9887499809265137,
        0.9916399717330933
      ],
      "min": [
        0.008170000277459621,
        0.013000000268220901
      ],
      "type": "VEC2"
    },
    {
      "bufferView": 0,
      "componentType": 5125,
      "count": 40998,
      "type": "SCALAR"
    }
  ],
  "asset": {
    "extras": {
      "author": "Valentine Buketov (https://sketchfab.com/ValentineBuketov)",
      "license": "CC-BY-4.0 (http://creativecommons.org/licenses/by/4.0/)",
      "source": "https://sketchfab.com/3d-models/gingerbread-man-from-shrek-9e9385d8707f414a83a268a9d11e3b79",
      "title": "Gingerbread Man (from Shrek)"
    },
    "generator": "Sketchfab-12.68.0",
    "version": "2.0"
  },
  "bufferViews": [
    {
      "buffer": 0,
      "byteLength": 163992,
      "name": "floatBufferViews",
      "target": 34963
    },
    {
      "buffer": 0,
      "byteLength": 60096,
      "byteOffset": 163992,
      "byteStride": 8,
      "name": "floatBufferViews",
      "target": 34962
    },
    {
      "buffer": 0,
      "byteLength": 180288,
      "byteOffset": 224088,
      "byteStride": 12,
      "name": "floatBufferViews",
      "target": 34962
    }
  ],
  "buffers": [
    {
      "byteLength": 404376,
      "uri": "scene.bin"
    }
  ],
  "images": [
    {
      "uri": "textures/Gingerbreadman_baseColor.png"
    }
  ],
  "materials": [
    {
      "doubleSided": true,
      "name": "Gingerbreadman",
      "pbrMetallicRoughness": {
        "baseColorTexture": {
          "index": 0
        },
        "metallicFactor": 0.0
      }
    }
  ],
  "meshes": [
    {
      "name": "Gingerbread man_0",
      "primitives": [
        {
          "attributes": {
            "NORMAL": 1,
            "POSITION": 0,
            "TEXCOORD_0": 2
          },
          "indices": 3,
          "material": 0,
          "mode": 4
        }
      ]
    }
  ],
  "nodes": [
    {
      "children": [
        1
      ],
      "matrix": [
        1.0,
        0.0,
        0.0,
        0.0,
        0.0,
        2.220446049250313e-16,
        -1.0,
        0.0,
        0.0,
        1.0,
        2.220446049250313e-16,
        0.0,
        0.0,
        0.0,
        0.0,
        1.0
      ],
      "name": "Sketchfab_model"
    },
    {
      "children": [
        2
      ],
      "name": "Root"
    },
    {
      "children": [
        3
      ],
      "name": "Gingerbread man"
    },
    {
      "mesh": 0,
      "name": "Gingerbread man_0"
    }
  ],
  "samplers": [
    {
      "magFilter": 9729,
      "minFilter": 9987,
      "wrapS": 10497,
      "wrapT": 10497
    }
  ],
  "scene": 0,
  "scenes": [
    {
      "name": "Sketchfab_Scene",
      "nodes": [
        0
      ]
    }
  ],
  "textures": [
    {
      "sampler": 0,
      "source": 0
    }
  ]
}
