{
  "accessors": [
    {
      "bufferView": 2,
      "componentType": 5126,
      "count": 5280,
      "max": [
        58.269004821777344,
        40.886497497558594,
        114.63562774658203
      ],
      "min": [
        -186.16445922851563,
        -254.36294555664063,
        29.66362953186035
      ],
      "type": "VEC3"
    },
    {
      "bufferView": 2,
      "byteOffset": 63360,
      "componentType": 5126,
      "count": 5280,
      "max": [
        0.8220083117485046,
        0.8219093084335327,
        0.992146909236908
      ],
      "min": [
        -0.8220564126968384,
        -0.8219637274742126,
        0.5693935751914978
      ],
      "type": "VEC3"
    },
    {
      "bufferView": 1,
      "componentType": 5126,
      "count": 5280,
      "max": [
        0.999500036239624,
        0.9870732426643372
      ],
      "min": [
        0.0005000000237487257,
        0.0005000000237487257
      ],
      "type": "VEC2"
    },
    {
      "bufferView": 0,
      "componentType": 5125,
      "count": 23760,
      "type": "SCALAR"
    },
    {
      "bufferView": 2,
      "byteOffset": 126720,
      "componentType": 5126,
      "count": 3177,
      "max": [
        39.4215087890625,
        19.07358169555664,
        87.364501953125
      ],
      "min": [
        -172.11090087890625,
        -218.6433563232422,
        0.0
      ],
      "type": "VEC3"
    },
    {
      "bufferView": 2,
      "byteOffset": 164844,
      "componentType": 5126,
      "count": 3177,
      "max": [
        1.0,
        0.9999318718910217,
        0.7483723163604736
      ],
      "min": [
        -1.0,
        -0.9999318718910217,
        -1.0
      ],
      "type": "VEC3"
    },
    {
      "bufferView": 1,
      "byteOffset": 42240,
      "componentType": 5126,
      "count": 3177,
      "max": [
        0.9994999766349792,
        0.9945367574691772
      ],
      "min": [
        0.0005000000237487257,
        0.0005000000237487257
      ],
      "type": "VEC2"
    },
    {
      "bufferView": 0,
      "byteOffset": 95040,
      "componentType": 5125,
      "count": 8976,
      "type": "SCALAR"
    }
  ],
  "asset": {
    "extras": {
      "author": "kelvladmail (https://sketchfab.com/kelvladmail)",
      "license": "CC-BY-4.0 (http://creativecommons.org/licenses/by/4.0/)",
      "source": "https://sketchfab.com/3d-models/clover-grass-beeff00b4496409da82b7c1a9705039e",
      "title": "Clover Grass"
    },
    "generator": "Sketchfab-12.68.0",
    "version": "2.0"
  },
  "bufferViews": [
    {
      "buffer": 0,
      "byteLength": 130944,
      "name": "floatBufferViews",
      "target": 34963
    },
    {
      "buffer": 0,
      "byteLength": 67656,
      "byteOffset": 130944,
      "byteStride": 8,
      "name": "floatBufferViews",
      "target": 34962
    },
    {
      "buffer": 0,
      "byteLength": 202968,
      "byteOffset": 198600,
      "byteStride": 12,
      "name": "floatBufferViews",
      "target": 34962
    }
  ],
  "buffers": [
    {
      "byteLength": 401568,
      "uri": "scene.bin"
    }
  ],
  "images": [
    {
      "uri": "textures/Material_136_baseColor.jpeg"
    },
    {
      "uri": "textures/Material_136_metallicRoughness.png"
    },
    {
      "uri": "textures/Material_42_baseColor.jpeg"
    },
    {
      "uri": "textures/Material_42_metallicRoughness.png"
    }
  ],
  "materials": [
    {
      "doubleSided": true,
      "name": "Material_136",
      "pbrMetallicRoughness": {
        "baseColorTexture": {
          "index": 0
        },
        "metallicFactor": 0.0,
        "metallicRoughnessTexture": {
          "index": 1
        }
      }
    },
    {
      "doubleSided": true,
      "name": "Material_42",
      "pbrMetallicRoughness": {
        "baseColorTexture": {
          "index": 2
        },
        "metallicFactor": 0.0,
        "metallicRoughnessTexture": {
          "index": 3
        }
      }
    }
  ],
  "meshes": [
    {
      "name": "foli_Material #136_0",
      "primitives": [
        {
          "attributes": {
            "NORMAL": 1,
            "POSITION": 0,
            "TEXCOORD_0": 2
          },
          "indices": 3,
          "material": 0,
          "mode": 4
        }
      ]
    },
    {
      "name": "trunks_Material #42_0",
      "primitives": [
        {
          "attributes": {
            "NORMAL": 5,
            "POSITION": 4,
            "TEXCOORD_0": 6
          },
          "indices": 7,
          "material": 1,
          "mode": 4
        }
      ]
    }
  ],
  "nodes": [
    {
      "children": [
        1
      ],
      "matrix": [
        1.0,
        0.0,
        0.0,
        0.0,
        0.0,
        2.220446049250313e-16,
        -1.0,
        0.0,
        0.0,
        1.0,
        2.220446049250313e-16,
        0.0,
        0.0,
        0.0,
        0.0,
        1.0
      ],
      "name": "Sketchfab_model"
    },
    {
      "children": [
        2
      ],
      "matrix": [
        1.0,
        0.0,
        0.0,
        0.0,
        0.0,
        0.0,
        1.0,
        0.0,
        0.0,
        -1.0,
        0.0,
        0.0,
        0.0,
        0.0,
        0.0,
        1.0
      ],
      "name": "3ec5399c0d3644a69d148d3c93ec0cb6.fbx"
    },
    {
      "children": [
        3,
        5
      ],
      "name": "RootNode"
    },
    {
      "children": [
        4
      ],
      "matrix": [
        -0.786024961109876,
        -1.0054079913583572e-16,
        0.44973307617074804,
        0.0,
        0.44973307617074804,
        0.0,
        0.7860249611098759,
        0.0,
        -1.0054079913583572e-16,
        0.9055910110473633,
        0.0,
        0.0,
        -109.70973205566406,
        0.0,
        383.14739990234375,
        1.0
      ],
      "name": "foli"
    },
    {
      "mesh": 0,
      "name": "foli_Material #136_0"
    },
    {
      "children": [
        6
      ],
      "matrix": [
        -0.786024961109876,
        -1.0054079913583572e-16,
        0.44973307617074804,
        0.0,
        0.44973307617074804,
        0.0,
        0.7860249611098759,
        0.0,
        -1.0054079913583572e-16,
        0.9055910110473633,
        0.0,
        0.0,
        -109.70973205566406,
        0.0,
        383.14739990234375,
        1.0
      ],
      "name": "trunks"
    },
    {
      "mesh": 1,
      "name": "trunks_Material #42_0"
    }
  ],
  "samplers": [
    {
      "magFilter": 9729,
      "minFilter": 9987,
      "wrapS": 10497,
      "wrapT": 10497
    }
  ],
  "scene": 0,
  "scenes": [
    {
      "name": "Sketchfab_Scene",
      "nodes": [
        0
      ]
    }
  ],
  "textures": [
    {
      "sampler": 0,
      "source": 0
    },
    {
      "sampler": 0,
      "source": 1
    },
    {
      "sampler": 0,
      "source": 2
    },
    {
      "sampler": 0,
      "source": 3
    }
  ]
}
