{
  "accessors": [
    {
      "bufferView": 2,
      "componentType": 5126,
      "count": 200,
      "max": [
        0.5310492515563965,
        3.167496681213379,
        1.089991569519043
      ],
      "min": [
        -4.04447078704834,
        -1.283027172088623,
        0.0
      ],
      "type": "VEC3"
    },
    {
      "bufferView": 2,
      "byteOffset": 2400,
      "componentType": 5126,
      "count": 200,
      "max": [
        0.9998183846473694,
        0.9998183846473694,
        3.5118176811010926e-07
      ],
      "min": [
        -0.9990423917770386,
        0.01906164363026619,
        -2.553182980591373e-07
      ],
      "type": "VEC3"
    },
    {
      "bufferView": 1,
      "componentType": 5126,
      "count": 200,
      "max": [
        1.0,
        1.0
      ],
      "min": [
        0.0,
        0.0
      ],
      "type": "VEC2"
    },
    {
      "bufferView": 0,
      "componentType": 5125,
      "count": 300,
      "type": "SCALAR"
    },
    {
      "bufferView": 2,
      "byteOffset": 4800,
      "componentType": 5126,
      "count": 200,
      "max": [
        0.5227136015892029,
        3.1083672046661377,
        1.089991569519043
      ],
      "min": [
        -3.8484318256378174,
        -1.3183448314666748,
        0.0
      ],
      "type": "VEC3"
    },
    {
      "bufferView": 2,
      "byteOffset": 7200,
      "componentType": 5126,
      "count": 200,
      "max": [
        1.0,
        0.9980267882347107,
        2.0067527373157645e-07
      ],
      "min": [
        0.0,
        -1.0,
        -2.493342776688223e-07
      ],
      "type": "VEC3"
    },
    {
      "bufferView": 1,
      "byteOffset": 1600,
      "componentType": 5126,
      "count": 200,
      "max": [
        1.0,
        1.0
      ],
      "min": [
        0.0,
        0.0
      ],
      "type": "VEC2"
    },
    {
      "bufferView": 0,
      "byteOffset": 1200,
      "componentType": 5125,
      "count": 300,
      "type": "SCALAR"
    }
  ],
  "asset": {
    "extras": {
      "author": "Somersby (https://sketchfab.com/Somersby)",
      "license": "CC-BY-NC-4.0 (http://creativecommons.org/licenses/by-nc/4.0/)",
      "source": "https://sketchfab.com/3d-models/grass-more-c86bba3546094c81ababfdf7db95e19c",
      "title": "Grass (More)"
    },
    "generator": "Sketchfab-12.65.0",
    "version": "2.0"
  },
  "bufferViews": [
    {
      "buffer": 0,
      "byteLength": 2400,
      "name": "floatBufferViews",
      "target": 34963
    },
    {
      "buffer": 0,
      "byteLength": 3200,
      "byteOffset": 2400,
      "byteStride": 8,
      "name": "floatBufferViews",
      "target": 34962
    },
    {
      "buffer": 0,
      "byteLength": 9600,
      "byteOffset": 5600,
      "byteStride": 12,
      "name": "floatBufferViews",
      "target": 34962
    }
  ],
  "buffers": [
    {
      "byteLength": 15200,
      "uri": "scene.bin"
    }
  ],
  "images": [
    {
      "uri": "textures/red-baron-grass-ornamental-Va7qqJC-600_baseColor.png"
    }
  ],
  "materials": [
    {
      "alphaCutoff": 0.5139100609756098,
      "alphaMode": "MASK",
      "doubleSided": true,
      "name": "red-baron-grass-ornamental-Va7qqJC-600",
      "pbrMetallicRoughness": {
        "baseColorTexture": {
          "index": 0
        },
        "metallicFactor": 0.0,
        "roughnessFactor": 0.9577051495
      }
    }
  ],
  "meshes": [
    {
      "name": "red-baron-grass-ornamental-Va7qqJC-600.001_red-baron-grass-ornamental-Va7qqJC-600_0",
      "primitives": [
        {
          "attributes": {
            "NORMAL": 1,
            "POSITION": 0,
            "TEXCOORD_0": 2
          },
          "indices": 3,
          "material": 0,
          "mode": 4
        }
      ]
    },
    {
      "name": "red-baron-grass-ornamental-Va7qqJC-600_red-baron-grass-ornamental-Va7qqJC-600_0",
      "primitives": [
        {
          "attributes": {
            "NORMAL": 5,
            "POSITION": 4,
            "TEXCOORD_0": 6
          },
          "indices": 7,
          "material": 0,
          "mode": 4
        }
      ]
    }
  ],
  "nodes": [
    {
      "children": [
        1
      ],
      "matrix": [
        0.010737674310803413,
        0.0,
        0.0,
        0.0,
        0.0,
        2.3842426501560018e-18,
        -0.010737674310803413,
        0.0,
        0.0,
        0.010737674310803413,
        2.3842426501560018e-18,
        0.0,
        0.0,
        0.0,
        0.0,
        1.0
      ],
      "name": "Sketchfab_model"
    },
    {
      "children": [
        2
      ],
      "matrix": [
        1.0,
        0.0,
        0.0,
        0.0,
        0.0,
        0.0,
        1.0,
        0.0,
        0.0,
        -1.0,
        0.0,
        0.0,
        0.0,
        0.0,
        0.0,
        1.0
      ],
      "name": "Grass.fbx"
    },
    {
      "children": [
        3,
        5
      ],
      "name": "RootNode"
    },
    {
      "children": [
        4
      ],
      "matrix": [
        100.0,
        0.0,
        0.0,
        0.0,
        0.0,
        -1.629206793918314e-05,
        -99.99999999999868,
        0.0,
        0.0,
        99.99999999999868,
        -1.629206793918314e-05,
        0.0,
        183.7110595703125,
        0.0,
        86.27213287353516,
        1.0
      ],
      "name": "red-baron-grass-ornamental-Va7qqJC-600.001"
    },
    {
      "mesh": 0,
      "name": "red-baron-grass-ornamental-Va7qqJC-600.001_red-baron-grass-ornamental-Va7qqJC-600_0"
    },
    {
      "children": [
        6
      ],
      "matrix": [
        100.0,
        0.0,
        0.0,
        0.0,
        0.0,
        -1.629206793918314e-05,
        -99.99999999999868,
        0.0,
        0.0,
        99.99999999999868,
        -1.629206793918314e-05,
        0.0,
        183.7110595703125,
        0.0,
        86.27213287353516,
        1.0
      ],
      "name": "red-baron-grass-ornamental-Va7qqJC-600"
    },
    {
      "mesh": 1,
      "name": "red-baron-grass-ornamental-Va7qqJC-600_red-baron-grass-ornamental-Va7qqJC-600_0"
    }
  ],
  "samplers": [
    {
      "magFilter": 9729,
      "minFilter": 9987,
      "wrapS": 10497,
      "wrapT": 10497
    }
  ],
  "scene": 0,
  "scenes": [
    {
      "name": "Sketchfab_Scene",
      "nodes": [
        0
      ]
    }
  ],
  "textures": [
    {
      "sampler": 0,
      "source": 0
    }
  ]
}
